<svg version="1.1" xmlns="http://www.w3.org/2000/svg" viewBox="-312.32000036239623 -2970.624182128906 13444.0962890625 3533.8242431640624"><desc>Created with Snap</desc><defs></defs><g><g><g transform="matrix(1.024,0,0,-1.024,0,0)"><path d="M355 -7Q256 -7 205 41Q155 90 155 185Q155 232 169 290L271 696Q185 673 137 614Q89 556 89 486Q89 437 115 391Q58 391 26 419Q-5 447 -5 498Q-5 563 47 622Q100 682 187 718Q274 754 371 754Q405 754 427 749L305 287Q288 224 288 179Q288 84 366 84Q478 84 521 290L621 752L762 752L665 290Q633 143 554 68Q476 -7 355 -7ZM1077 -6Q1016 -6 987 26Q959 59 959 107Q959 128 964 154Q969 181 974 206Q980 231 982 238Q990 273 997 307Q1004 341 1004 362Q1004 413 968 413Q942 413 922 387Q902 362 890 321L822 0L678 0L784 500L928 500L917 448Q967 504 1034 504Q1085 504 1115 476Q1145 448 1145 391Q1145 362 1138 326Q1131 291 1118 240Q1110 209 1103 179Q1097 150 1097 133Q1097 113 1106 102Q1115 91 1137 91Q1167 91 1185 112Q1203 134 1221 179L1263 179Q1226 69 1177 31Q1129 -6 1077 -6ZM1388 554Q1355 554 1332 577Q1309 600 1309 633Q1309 666 1332 689Q1355 713 1388 713Q1421 713 1444 689Q1468 666 1468 633Q1468 600 1444 577Q1421 554 1388 554ZM1320 -6Q1272 -6 1242 24Q1213 54 1213 114Q1213 139 1221 179L1289 500L1433 500L1361 160Q1357 145 1357 128Q1357 108 1366 99Q1376 91 1398 91Q1427 91 1452 115Q1477 140 1488 179L1530 179Q1493 71 1435 32Q1377 -6 1320 -6ZM1602 -6Q1544 -6 1511 23Q1479 53 1479 112Q1479 136 1484 160L1556 500L1700 500L1628 160Q1623 135 1623 124Q1623 91 1657 91Q1703 91 1742 149Q1782 207 1806 287Q1830 367 1830 425Q1828 420 1817 417Q1806 415 1798 415Q1781 415 1771 431Q1762 447 1762 466Q1762 490 1777 505Q1793 520 1824 520Q1857 520 1872 495Q1887 471 1887 433Q1887 343 1856 240Q1825 138 1761 66Q1697 -6 1602 -6ZM2045 -6Q1971 -6 1930 32Q1889 71 1889 153Q1889 222 1916 305Q1943 388 2004 448Q2065 509 2159 509Q2269 509 2269 413Q2269 357 2237 310Q2205 263 2152 234Q2099 206 2039 202Q2037 172 2037 162Q2037 113 2054 95Q2071 78 2109 78Q2163 78 2201 103Q2240 128 2286 179L2320 179Q2209 -6 2045 -6ZM2047 250Q2084 252 2117 276Q2151 300 2171 337Q2192 374 2192 415Q2192 456 2167 456Q2131 456 2096 393Q2062 330 2047 250ZM2248 0L2354 500L2498 500L2485 438Q2519 468 2546 484Q2574 500 2606 500Q2638 500 2656 478Q2675 456 2675 425Q2675 396 2656 374Q2637 352 2603 352Q2581 352 2573 362Q2566 373 2562 393Q2559 406 2556 412Q2553 418 2545 418Q2524 418 2509 409Q2495 401 2472 380L2392 0L2248 0ZM2776 -6Q2728 -6 2695 12Q2662 31 2646 60Q2630 90 2630 122Q2630 155 2645 179Q2661 204 2683 215Q2722 285 2751 356Q2780 428 2806 511L2954 531Q2959 403 2971 254Q2976 194 2976 167Q2976 144 2972 129Q3019 156 3044 179L3086 179Q3022 105 2933 54Q2904 23 2861 8Q2819 -6 2776 -6ZM2744 73Q2781 73 2806 95Q2831 117 2831 166Q2831 196 2825 250Q2815 364 2812 403Q2788 324 2731 214Q2754 202 2754 179Q2754 160 2741 145Q2729 130 2710 130Q2689 130 2683 143Q2683 107 2697 90Q2712 73 2744 73ZM3211 554Q3178 554 3155 577Q3132 600 3132 633Q3132 666 3155 689Q3178 713 3211 713Q3244 713 3267 689Q3291 666 3291 633Q3291 600 3267 577Q3244 554 3211 554ZM3143 -6Q3095 -6 3065 24Q3036 54 3036 114Q3036 139 3044 179L3112 500L3256 500L3184 160Q3180 145 3180 128Q3180 108 3189 99Q3199 91 3221 91Q3250 91 3275 115Q3300 140 3311 179L3353 179Q3316 71 3258 32Q3200 -6 3143 -6ZM3410 -6Q3362 -6 3332 24Q3303 54 3303 114Q3303 139 3311 179L3371 460L3338 460L3346 500L3379 500L3409 638L3557 658L3523 500L3583 500L3575 460L3515 460L3451 160Q3447 145 3447 128Q3447 108 3456 99Q3466 91 3488 91Q3517 91 3542 115Q3567 140 3578 179L3620 179Q3583 71 3525 32Q3467 -6 3410 -6ZM3734 -250Q3686 -250 3654 -225Q3622 -200 3622 -153Q3622 -96 3668 -62Q3714 -27 3785 -4L3797 50Q3768 18 3738 6Q3708 -6 3677 -6Q3629 -6 3599 24Q3570 54 3570 114Q3570 139 3578 179L3646 500L3790 500L3718 160Q3715 148 3715 135Q3715 91 3745 91Q3771 91 3791 113Q3811 136 3823 173L3893 500L4037 500L3938 36Q3986 52 4015 84Q4044 116 4064 179L4106 179Q4079 90 4033 48Q3987 7 3929 -8L3914 -80Q3894 -177 3845 -214Q3796 -250 3734 -250ZM3711 -172Q3728 -172 3744 -149Q3760 -126 3769 -83L3775 -54Q3677 -90 3677 -139Q3677 -152 3686 -162Q3695 -172 3711 -172ZM4348 0L4602 687Q4526 662 4484 604Q4443 547 4443 462Q4443 424 4450 410Q4457 396 4457 393Q4350 393 4350 484Q4350 546 4397 608Q4445 671 4519 710Q4594 750 4668 750Q4705 750 4744 736L4721 209L4941 736L5085 736L4980 0L4836 0L4900 449L4712 0L4575 0L4595 451L4428 0L4348 0ZM5188 -6Q5131 -6 5093 33Q5055 72 5055 155Q5055 229 5084 310Q5114 392 5172 448Q5231 505 5312 505Q5353 505 5373 491Q5393 477 5393 454L5393 447L5404 500L5548 500L5476 160Q5472 145 5472 128Q5472 85 5513 85Q5541 85 5561 111Q5582 137 5594 179L5636 179Q5599 71 5544 32Q5490 -6 5435 -6Q5393 -6 5367 17Q5342 41 5337 86Q5308 45 5272 19Q5237 -6 5188 -6ZM5253 91Q5278 91 5302 114Q5327 138 5336 179L5384 405Q5384 418 5374 430Q5364 443 5343 443Q5303 443 5271 396Q5239 350 5221 284Q5203 219 5203 169Q5203 119 5217 105Q5232 91 5253 91ZM5955 -6Q5894 -6 5865 26Q5837 59 5837 107Q5837 128 5842 154Q5847 181 5852 206Q5858 231 5860 238Q5868 273 5875 307Q5882 341 5882 362Q5882 413 5846 413Q5820 413 5800 387Q5780 362 5768 321L5700 0L5556 0L5662 500L5806 500L5795 448Q5845 504 5912 504Q5963 504 5993 476Q6023 448 6023 391Q6023 362 6016 326Q6009 291 5996 240Q5988 209 5981 179Q5975 150 5975 133Q5975 113 5984 102Q5993 91 6015 91Q6045 91 6063 112Q6081 134 6099 179L6141 179Q6104 69 6055 31Q6007 -6 5955 -6ZM6219 -6Q6162 -6 6124 33Q6086 72 6086 155Q6086 229 6115 310Q6145 392 6203 448Q6262 505 6343 505Q6384 505 6404 491Q6424 477 6424 454L6424 447L6435 500L6579 500L6507 160Q6503 145 6503 128Q6503 85 6544 85Q6572 85 6592 111Q6613 137 6625 179L6667 179Q6630 71 6575 32Q6521 -6 6466 -6Q6424 -6 6398 17Q6373 41 6368 86Q6339 45 6303 19Q6268 -6 6219 -6ZM6284 91Q6309 91 6333 114Q6358 138 6367 179L6415 405Q6415 418 6405 430Q6395 443 6374 443Q6334 443 6302 396Q6270 350 6252 284Q6234 219 6234 169Q6234 119 6248 105Q6263 91 6284 91ZM6802 -250Q6754 -250 6722 -225Q6690 -200 6690 -153Q6690 -96 6736 -62Q6782 -27 6853 -4L6865 49Q6814 -6 6745 -6Q6688 -6 6650 33Q6612 72 6612 155Q6612 229 6641 310Q6671 392 6729 448Q6788 505 6869 505Q6910 505 6930 491Q6950 477 6950 454L6950 448L6961 500L7105 500L7006 36Q7054 52 7083 84Q7112 116 7132 179L7174 179Q7147 90 7101 48Q7055 7 6997 -8L6982 -80Q6962 -177 6913 -214Q6864 -250 6802 -250ZM6810 91Q6833 91 6857 112Q6881 133 6890 169L6941 406Q6941 418 6931 430Q6921 443 6900 443Q6860 443 6828 396Q6796 350 6778 284Q6760 219 6760 169Q6760 119 6774 105Q6789 91 6810 91ZM6779 -172Q6796 -172 6812 -149Q6828 -126 6837 -83L6843 -54Q6745 -90 6745 -139Q6745 -152 6754 -162Q6763 -172 6779 -172ZM7275 -6Q7201 -6 7160 32Q7119 71 7119 153Q7119 222 7146 305Q7173 388 7234 448Q7295 509 7389 509Q7499 509 7499 413Q7499 357 7467 310Q7435 263 7382 234Q7329 206 7269 202Q7267 172 7267 162Q7267 113 7284 95Q7301 78 7339 78Q7393 78 7431 103Q7470 128 7516 179L7550 179Q7439 -6 7275 -6ZM7277 250Q7314 252 7347 276Q7381 300 7401 337Q7422 374 7422 415Q7422 456 7397 456Q7361 456 7326 393Q7292 330 7277 250ZM8124 -6Q8063 -6 8034 26Q8006 59 8006 107Q8006 128 8011 154Q8016 181 8021 206Q8027 231 8029 238Q8037 273 8044 307Q8051 341 8051 362Q8051 413 8015 413Q7989 413 7969 387Q7949 362 7937 321L7869 0L7725 0L7798 345Q7801 357 7801 370Q7801 414 7771 414Q7743 414 7722 388Q7702 363 7690 321L7622 0L7478 0L7584 500L7728 500L7717 448Q7768 505 7839 505Q7927 505 7942 419Q7997 504 8081 504Q8132 504 8162 476Q8192 448 8192 391Q8192 362 8185 326Q8178 291 8165 240Q8157 209 8150 179Q8144 150 8144 133Q8144 113 8153 102Q8162 91 8184 91Q8214 91 8232 112Q8250 134 8268 179L8310 179Q8273 69 8224 31Q8176 -6 8124 -6ZM8411 -6Q8337 -6 8296 32Q8255 71 8255 153Q8255 222 8282 305Q8309 388 8370 448Q8431 509 8525 509Q8635 509 8635 413Q8635 357 8603 310Q8571 263 8518 234Q8465 206 8405 202Q8403 172 8403 162Q8403 113 8420 95Q8437 78 8475 78Q8529 78 8567 103Q8606 128 8652 179L8686 179Q8575 -6 8411 -6ZM8413 250Q8450 252 8483 276Q8517 300 8537 337Q8558 374 8558 415Q8558 456 8533 456Q8497 456 8462 393Q8428 330 8413 250ZM9013 -6Q8952 -6 8923 26Q8895 59 8895 107Q8895 128 8900 154Q8905 181 8910 206Q8916 231 8918 238Q8926 273 8933 307Q8940 341 8940 362Q8940 413 8904 413Q8878 413 8858 387Q8838 362 8826 321L8758 0L8614 0L8720 500L8864 500L8853 448Q8903 504 8970 504Q9021 504 9051 476Q9081 448 9081 391Q9081 362 9074 326Q9067 291 9054 240Q9046 209 9039 179Q9033 150 9033 133Q9033 113 9042 102Q9051 91 9073 91Q9103 91 9121 112Q9139 134 9157 179L9199 179Q9162 69 9113 31Q9065 -6 9013 -6ZM9256 -6Q9208 -6 9178 24Q9149 54 9149 114Q9149 139 9157 179L9217 460L9184 460L9192 500L9225 500L9255 638L9403 658L9369 500L9429 500L9421 460L9361 460L9297 160Q9293 145 9293 128Q9293 108 9302 99Q9312 91 9334 91Q9363 91 9388 115Q9413 140 9424 179L9466 179Q9429 71 9371 32Q9313 -6 9256 -6ZM9886 -18Q9823 -18 9775 4Q9727 26 9701 65Q9675 105 9675 157Q9675 201 9693 237Q9712 273 9743 294Q9775 315 9813 315Q9848 315 9872 297Q9896 280 9902 249Q9850 249 9819 221Q9788 194 9788 147Q9788 104 9814 78Q9840 52 9883 52Q9936 52 9970 87Q10005 123 10005 177Q10005 224 9979 266Q9953 308 9901 368Q9847 430 9819 474Q9792 519 9792 572Q9792 624 9821 665Q9850 707 9901 731Q9952 755 10016 755Q10097 755 10145 717Q10194 679 10194 615Q10194 573 10173 547Q10152 521 10118 521Q10080 521 10057 552Q10076 566 10087 589Q10098 612 10098 637Q10098 669 10079 688Q10060 707 10027 707Q9987 707 9961 678Q9936 650 9936 606Q9936 566 9959 531Q9982 497 10031 443Q10071 400 10095 369Q10120 338 10137 297Q10155 257 10155 210Q10155 146 10119 94Q10084 42 10022 12Q9961 -18 9886 -18ZM10367 -250Q10319 -250 10287 -225Q10255 -200 10255 -153Q10255 -96 10301 -62Q10347 -27 10418 -4L10430 50Q10401 18 10371 6Q10341 -6 10310 -6Q10262 -6 10232 24Q10203 54 10203 114Q10203 139 10211 179L10279 500L10423 500L10351 160Q10348 148 10348 135Q10348 91 10378 91Q10404 91 10424 113Q10444 136 10456 173L10526 500L10670 500L10571 36Q10619 52 10648 84Q10677 116 10697 179L10739 179Q10712 90 10666 48Q10620 7 10562 -8L10547 -80Q10527 -177 10478 -214Q10429 -250 10367 -250ZM10344 -172Q10361 -172 10377 -149Q10393 -126 10402 -83L10408 -54Q10310 -90 10310 -139Q10310 -152 10319 -162Q10328 -172 10344 -172ZM10811 -6Q10763 -6 10730 12Q10697 31 10681 60Q10665 90 10665 122Q10665 155 10680 179Q10696 204 10718 215Q10757 285 10786 356Q10815 428 10841 511L10989 531Q10994 403 11006 254Q11011 194 11011 167Q11011 144 11007 129Q11054 156 11079 179L11121 179Q11057 105 10968 54Q10939 23 10896 8Q10854 -6 10811 -6ZM10779 73Q10816 73 10841 95Q10866 117 10866 166Q10866 196 10860 250Q10850 364 10847 403Q10823 324 10766 214Q10789 202 10789 179Q10789 160 10776 145Q10764 130 10745 130Q10724 130 10718 143Q10718 107 10732 90Q10747 73 10779 73ZM11178 -6Q11130 -6 11100 24Q11071 54 11071 114Q11071 139 11079 179L11139 460L11106 460L11114 500L11147 500L11177 638L11325 658L11291 500L11351 500L11343 460L11283 460L11219 160Q11215 145 11215 128Q11215 108 11224 99Q11234 91 11256 91Q11285 91 11310 115Q11335 140 11346 179L11388 179Q11351 71 11293 32Q11235 -6 11178 -6ZM11489 -6Q11415 -6 11374 32Q11333 71 11333 153Q11333 222 11360 305Q11387 388 11448 448Q11509 509 11603 509Q11713 509 11713 413Q11713 357 11681 310Q11649 263 11596 234Q11543 206 11483 202Q11481 172 11481 162Q11481 113 11498 95Q11515 78 11553 78Q11607 78 11645 103Q11684 128 11730 179L11764 179Q11653 -6 11489 -6ZM11491 250Q11528 252 11561 276Q11595 300 11615 337Q11636 374 11636 415Q11636 456 11611 456Q11575 456 11540 393Q11506 330 11491 250ZM12338 -6Q12277 -6 12248 26Q12220 59 12220 107Q12220 128 12225 154Q12230 181 12235 206Q12241 231 12243 238Q12251 273 12258 307Q12265 341 12265 362Q12265 413 12229 413Q12203 413 12183 387Q12163 362 12151 321L12083 0L11939 0L12012 345Q12015 357 12015 370Q12015 414 11985 414Q11957 414 11936 388Q11916 363 11904 321L11836 0L11692 0L11798 500L11942 500L11931 448Q11982 505 12053 505Q12141 505 12156 419Q12211 504 12295 504Q12346 504 12376 476Q12406 448 12406 391Q12406 362 12399 326Q12392 291 12379 240Q12371 209 12364 179Q12358 150 12358 133Q12358 113 12367 102Q12376 91 12398 91Q12428 91 12446 112Q12464 134 12482 179L12524 179Q12487 69 12438 31Q12390 -6 12338 -6Z" fill="#00203f" style=""></path></g></g><g transform="matrix(2,0,0,2,4309.504,-1117.1841)"><g transform="matrix(1.024,0,0,-1.024,0,0)"><path d="M355 -7Q256 -7 205 41Q155 90 155 185Q155 232 169 290L271 696Q185 673 137 614Q89 556 89 486Q89 437 115 391Q58 391 26 419Q-5 447 -5 498Q-5 563 47 622Q100 682 187 718Q274 754 371 754Q405 754 427 749L305 287Q288 224 288 179Q288 84 366 84Q478 84 521 290L621 752L762 752L665 290Q633 143 554 68Q476 -7 355 -7ZM783 0L1037 687Q961 662 919 604Q878 547 878 462Q878 424 885 410Q892 396 892 393Q785 393 785 484Q785 546 832 608Q880 671 954 710Q1029 750 1103 750Q1140 750 1179 736L1156 209L1376 736L1520 736L1415 0L1271 0L1335 449L1147 0L1010 0L1030 451L863 0L783 0ZM1748 -18Q1685 -18 1637 4Q1589 26 1563 65Q1537 105 1537 157Q1537 201 1555 237Q1574 273 1605 294Q1637 315 1675 315Q1710 315 1734 297Q1758 280 1764 249Q1712 249 1681 221Q1650 194 1650 147Q1650 104 1676 78Q1702 52 1745 52Q1798 52 1832 87Q1867 123 1867 177Q1867 224 1841 266Q1815 308 1763 368Q1709 430 1681 474Q1654 519 1654 572Q1654 624 1683 665Q1712 707 1763 731Q1814 755 1878 755Q1959 755 2007 717Q2056 679 2056 615Q2056 573 2035 547Q2014 521 1980 521Q1942 521 1919 552Q1938 566 1949 589Q1960 612 1960 637Q1960 669 1941 688Q1922 707 1889 707Q1849 707 1823 678Q1798 650 1798 606Q1798 566 1821 531Q1844 497 1893 443Q1933 400 1957 369Q1982 338 1999 297Q2017 257 2017 210Q2017 146 1981 94Q1946 42 1884 12Q1823 -18 1748 -18Z" fill="#00203f" style=""></path></g></g></g></svg>