<?xml version="1.0" encoding="UTF-8"?>
<svg xmlns="http://www.w3.org/2000/svg" xmlns:xlink="http://www.w3.org/1999/xlink" width="487px" height="144px" viewBox="0 0 487 144" version="1.1">
<g id="surface1">
<path style=" stroke:none;fill-rule:nonzero;fill:rgb(73.333333%,20%,26.666667%);fill-opacity:1;" d="M 300.230469 49.589844 C 302.527344 51.648438 303.566406 53.789062 303.234375 55.933594 C 309.382812 55.238281 315.164062 54.179688 320.121094 52.714844 C 320.703125 52.542969 321.097656 52.34375 321.636719 52.167969 C 321.679688 51.925781 321.886719 51.703125 321.886719 51.460938 C 321.886719 49.402344 320.347656 47.453125 317.6875 45.6875 C 312.746094 47.285156 306.847656 48.613281 300.230469 49.589844 Z M 300.230469 49.589844 "/>
<path style=" stroke:none;fill-rule:nonzero;fill:rgb(73.333333%,20%,26.666667%);fill-opacity:1;" d="M 254.050781 64.503906 C 260.023438 65.289062 266.609375 65.742188 273.570312 65.742188 C 274.402344 65.742188 275.148438 65.683594 275.960938 65.671875 C 276.5625 65.511719 277.246094 65.394531 277.820312 65.222656 C 282.769531 63.753906 286.351562 62.042969 288.699219 60.222656 C 281.445312 60.320312 274.214844 60.015625 267.253906 59.339844 C 263.953125 61.296875 259.464844 63.042969 254.050781 64.503906 Z M 254.050781 64.503906 "/>
<path style=" stroke:none;fill-rule:nonzero;fill:rgb(73.333333%,20%,26.666667%);fill-opacity:1;" d="M 220.078125 59.339844 C 213.113281 60.019531 205.878906 60.320312 198.625 60.222656 C 200.976562 62.046875 204.550781 63.757812 209.507812 65.222656 C 210.085938 65.394531 210.765625 65.511719 211.363281 65.671875 C 212.167969 65.683594 212.9375 65.746094 213.75 65.746094 C 220.714844 65.746094 227.296875 65.289062 233.273438 64.507812 C 227.867188 63.042969 223.378906 61.296875 220.078125 59.339844 Z M 220.078125 59.339844 "/>
<path style=" stroke:none;fill-rule:nonzero;fill:rgb(73.333333%,20%,26.666667%);fill-opacity:1;" d="M 187.09375 49.589844 C 180.476562 48.613281 174.574219 47.285156 169.632812 45.6875 C 166.984375 47.453125 165.445312 49.402344 165.445312 51.460938 C 165.445312 51.703125 165.648438 51.925781 165.683594 52.164062 C 166.230469 52.34375 166.625 52.542969 167.207031 52.714844 C 172.160156 54.179688 177.953125 55.238281 184.101562 55.933594 C 183.765625 53.789062 184.800781 51.648438 187.09375 49.589844 Z M 187.09375 49.589844 "/>
<path style=" stroke:none;fill-rule:nonzero;fill:rgb(73.333333%,20%,26.666667%);fill-opacity:1;" d="M 187.09375 35.640625 C 184.800781 33.578125 183.765625 31.441406 184.097656 29.296875 C 177.949219 29.992188 172.164062 31.050781 167.203125 32.511719 C 166.621094 32.6875 166.226562 32.886719 165.683594 33.0625 C 165.648438 33.304688 165.445312 33.527344 165.445312 33.769531 C 165.445312 35.828125 166.984375 37.773438 169.632812 39.542969 C 174.574219 37.941406 180.476562 36.617188 187.09375 35.640625 Z M 187.09375 35.640625 "/>
<path style=" stroke:none;fill-rule:nonzero;fill:rgb(73.333333%,20%,26.666667%);fill-opacity:1;" d="M 233.273438 20.722656 C 227.296875 19.941406 220.714844 19.484375 213.75 19.484375 C 212.9375 19.484375 212.167969 19.546875 211.363281 19.558594 C 210.765625 19.71875 210.085938 19.835938 209.507812 20.007812 C 204.550781 21.46875 200.976562 23.183594 198.625 25.003906 C 205.878906 24.90625 213.113281 25.210938 220.078125 25.890625 C 223.378906 23.929688 227.867188 22.1875 233.273438 20.722656 Z M 233.273438 20.722656 "/>
<path style=" stroke:none;fill-rule:nonzero;fill:rgb(73.333333%,20%,26.666667%);fill-opacity:1;" d="M 267.253906 25.890625 C 274.214844 25.210938 281.445312 24.90625 288.699219 25.003906 C 286.34375 23.183594 282.769531 21.472656 277.820312 20.007812 C 277.246094 19.832031 276.5625 19.71875 275.960938 19.558594 C 275.148438 19.542969 274.390625 19.484375 273.570312 19.484375 C 266.609375 19.484375 260.023438 19.941406 254.050781 20.722656 C 259.464844 22.1875 263.953125 23.929688 267.253906 25.890625 Z M 267.253906 25.890625 "/>
<path style=" stroke:none;fill-rule:nonzero;fill:rgb(73.333333%,20%,26.666667%);fill-opacity:1;" d="M 320.121094 32.511719 C 315.164062 31.050781 309.382812 29.992188 303.234375 29.296875 C 303.566406 31.441406 302.527344 33.578125 300.230469 35.640625 C 306.847656 36.617188 312.746094 37.941406 317.6875 39.546875 C 320.347656 37.773438 321.886719 35.828125 321.886719 33.769531 C 321.886719 33.527344 321.675781 33.304688 321.636719 33.0625 C 321.097656 32.886719 320.703125 32.6875 320.121094 32.511719 Z M 320.121094 32.511719 "/>
<path style=" stroke:none;fill-rule:nonzero;fill:rgb(73.333333%,20%,26.666667%);fill-opacity:1;" d="M 262.0625 51.460938 C 262.0625 51.34375 261.949219 51.234375 261.9375 51.117188 C 259.414062 50.972656 256.964844 50.769531 254.5625 50.53125 C 253.460938 51.179688 252.445312 51.835938 251.066406 52.445312 C 251.335938 52.53125 251.519531 52.632812 251.800781 52.714844 C 254.523438 53.519531 257.523438 54.171875 260.652344 54.742188 C 261.503906 53.683594 262.0625 52.597656 262.0625 51.460938 Z M 262.0625 51.460938 "/>
<path style=" stroke:none;fill-rule:nonzero;fill:rgb(73.333333%,20%,26.666667%);fill-opacity:1;" d="M 226.679688 54.742188 C 229.804688 54.171875 232.804688 53.515625 235.519531 52.714844 C 235.804688 52.632812 235.996094 52.53125 236.261719 52.445312 C 234.878906 51.832031 233.863281 51.179688 232.761719 50.53125 C 230.363281 50.765625 227.910156 50.96875 225.382812 51.117188 C 225.378906 51.234375 225.269531 51.339844 225.269531 51.457031 C 225.273438 52.597656 225.832031 53.683594 226.679688 54.742188 Z M 226.679688 54.742188 "/>
<path style=" stroke:none;fill-rule:nonzero;fill:rgb(73.333333%,20%,26.666667%);fill-opacity:1;" d="M 209.507812 45.023438 C 206.796875 45.824219 204.585938 46.710938 202.652344 47.636719 C 206.230469 47.886719 209.914062 48.054688 213.753906 48.054688 C 214.148438 48.054688 214.507812 48.023438 214.902344 48.019531 C 215.402344 47.273438 216.082031 46.546875 216.886719 45.835938 C 214.703125 45.511719 212.488281 45.214844 210.421875 44.800781 C 210.132812 44.882812 209.796875 44.941406 209.507812 45.023438 Z M 209.507812 45.023438 "/>
<path style=" stroke:none;fill-rule:nonzero;fill:rgb(73.333333%,20%,26.666667%);fill-opacity:1;" d="M 214.902344 37.210938 C 214.507812 37.207031 214.144531 37.175781 213.753906 37.175781 C 209.914062 37.175781 206.234375 37.339844 202.652344 37.589844 C 204.585938 38.519531 206.792969 39.40625 209.507812 40.207031 C 209.792969 40.289062 210.132812 40.34375 210.421875 40.425781 C 212.488281 40.015625 214.699219 39.71875 216.886719 39.390625 C 216.082031 38.683594 215.402344 37.957031 214.902344 37.210938 Z M 214.902344 37.210938 "/>
<path style=" stroke:none;fill-rule:nonzero;fill:rgb(73.333333%,20%,26.666667%);fill-opacity:1;" d="M 225.273438 33.769531 C 225.273438 33.886719 225.382812 33.996094 225.386719 34.109375 C 227.914062 34.257812 230.367188 34.460938 232.765625 34.699219 C 233.863281 34.050781 234.882812 33.394531 236.265625 32.785156 C 235.996094 32.699219 235.808594 32.597656 235.523438 32.511719 C 232.808594 31.710938 229.804688 31.058594 226.679688 30.488281 C 225.832031 31.546875 225.273438 32.632812 225.273438 33.769531 Z M 225.273438 33.769531 "/>
<path style=" stroke:none;fill-rule:nonzero;fill:rgb(73.333333%,20%,26.666667%);fill-opacity:1;" d="M 260.652344 30.488281 C 257.523438 31.058594 254.523438 31.710938 251.800781 32.515625 C 251.519531 32.597656 251.335938 32.699219 251.066406 32.785156 C 252.445312 33.394531 253.460938 34.050781 254.5625 34.699219 C 256.960938 34.460938 259.414062 34.257812 261.9375 34.113281 C 261.949219 33.996094 262.0625 33.886719 262.0625 33.769531 C 262.0625 32.632812 261.503906 31.546875 260.652344 30.488281 Z M 260.652344 30.488281 "/>
<path style=" stroke:none;fill-rule:nonzero;fill:rgb(73.333333%,20%,26.666667%);fill-opacity:1;" d="M 273.570312 37.175781 C 273.175781 37.175781 272.824219 37.207031 272.425781 37.210938 C 271.929688 37.957031 271.242188 38.683594 270.433594 39.394531 C 272.625 39.71875 274.839844 40.019531 276.90625 40.429688 C 277.195312 40.34375 277.539062 40.289062 277.820312 40.207031 C 280.53125 39.40625 282.738281 38.519531 284.679688 37.589844 C 281.097656 37.339844 277.414062 37.175781 273.570312 37.175781 Z M 273.570312 37.175781 "/>
<path style=" stroke:none;fill-rule:nonzero;fill:rgb(73.333333%,20%,26.666667%);fill-opacity:1;" d="M 237.894531 41.90625 C 237.8125 42.382812 237.8125 42.847656 237.894531 43.320312 C 238.96875 43.675781 240.085938 44.003906 241.273438 44.324219 C 242.871094 44.347656 244.453125 44.347656 246.050781 44.324219 C 247.242188 44.003906 248.363281 43.671875 249.4375 43.320312 C 249.519531 42.847656 249.515625 42.382812 249.4375 41.910156 C 248.363281 41.554688 247.246094 41.226562 246.058594 40.90625 C 244.457031 40.882812 242.867188 40.882812 241.269531 40.90625 C 240.085938 41.226562 238.964844 41.554688 237.894531 41.90625 Z M 237.894531 41.90625 "/>
<path style=" stroke:none;fill-rule:nonzero;fill:rgb(73.333333%,20%,26.666667%);fill-opacity:1;" d="M 276.90625 44.800781 C 274.839844 45.214844 272.625 45.511719 270.433594 45.835938 C 271.242188 46.546875 271.925781 47.273438 272.425781 48.019531 C 272.824219 48.023438 273.175781 48.054688 273.570312 48.054688 C 277.414062 48.054688 281.097656 47.890625 284.679688 47.636719 C 282.738281 46.710938 280.527344 45.824219 277.820312 45.023438 C 277.539062 44.941406 277.195312 44.882812 276.90625 44.800781 Z M 276.90625 44.800781 "/>
<path style=" stroke:none;fill-rule:nonzero;fill:rgb(73.333333%,20%,26.666667%);fill-opacity:1;" d="M 295.484375 46.433594 C 301.632812 45.5 306.976562 44.199219 311.230469 42.613281 C 306.976562 41.03125 301.636719 39.730469 295.484375 38.796875 C 292.890625 40.15625 289.875 41.460938 285.96875 42.613281 C 289.875 43.769531 292.886719 45.074219 295.484375 46.433594 Z M 295.484375 46.433594 "/>
<path style=" stroke:none;fill-rule:nonzero;fill:rgb(73.333333%,20%,26.666667%);fill-opacity:1;" d="M 271.367188 29.0625 C 272.761719 30.5625 273.570312 32.136719 273.570312 33.769531 C 279.097656 33.769531 284.410156 34.011719 289.492188 34.425781 C 291.554688 32.492188 292.210938 30.480469 291.441406 28.488281 C 284.703125 28.261719 277.890625 28.449219 271.367188 29.0625 Z M 271.367188 29.0625 "/>
<path style=" stroke:none;fill-rule:nonzero;fill:rgb(73.333333%,20%,26.666667%);fill-opacity:1;" d="M 243.664062 22.632812 C 238.300781 23.894531 233.90625 25.472656 230.753906 27.289062 C 235.339844 28.0625 239.753906 28.953125 243.664062 30.105469 C 247.578125 28.953125 251.988281 28.0625 256.578125 27.289062 C 253.417969 25.472656 249.027344 23.894531 243.664062 22.632812 Z M 243.664062 22.632812 "/>
<path style=" stroke:none;fill-rule:nonzero;fill:rgb(73.333333%,20%,26.666667%);fill-opacity:1;" d="M 213.753906 33.769531 C 213.753906 32.136719 214.5625 30.5625 215.957031 29.0625 C 209.4375 28.453125 202.628906 28.261719 195.890625 28.488281 C 195.121094 30.484375 195.769531 32.492188 197.832031 34.425781 C 202.914062 34.011719 208.234375 33.769531 213.753906 33.769531 Z M 213.753906 33.769531 "/>
<path style=" stroke:none;fill-rule:nonzero;fill:rgb(73.333333%,20%,26.666667%);fill-opacity:1;" d="M 176.089844 42.613281 C 180.359375 44.199219 185.691406 45.5 191.84375 46.433594 C 194.441406 45.074219 197.449219 43.769531 201.359375 42.613281 C 197.449219 41.460938 194.441406 40.15625 191.839844 38.796875 C 185.695312 39.730469 180.359375 41.03125 176.089844 42.613281 Z M 176.089844 42.613281 "/>
<path style=" stroke:none;fill-rule:nonzero;fill:rgb(73.333333%,20%,26.666667%);fill-opacity:1;" d="M 215.957031 56.167969 C 214.5625 54.664062 213.753906 53.09375 213.753906 51.460938 C 208.234375 51.460938 202.914062 51.21875 197.832031 50.804688 C 195.769531 52.738281 195.121094 54.75 195.890625 56.742188 C 202.628906 56.96875 209.4375 56.777344 215.957031 56.167969 Z M 215.957031 56.167969 "/>
<path style=" stroke:none;fill-rule:nonzero;fill:rgb(73.333333%,20%,26.666667%);fill-opacity:1;" d="M 243.664062 62.59375 C 249.03125 61.332031 253.421875 59.757812 256.578125 57.9375 C 251.988281 57.167969 247.578125 56.277344 243.664062 55.125 C 239.753906 56.277344 235.339844 57.167969 230.753906 57.9375 C 233.910156 59.757812 238.300781 61.332031 243.664062 62.59375 Z M 243.664062 62.59375 "/>
<path style=" stroke:none;fill-rule:nonzero;fill:rgb(73.333333%,20%,26.666667%);fill-opacity:1;" d="M 273.570312 51.460938 C 273.570312 53.09375 272.761719 54.664062 271.367188 56.167969 C 277.890625 56.777344 284.703125 56.96875 291.445312 56.742188 C 292.214844 54.746094 291.558594 52.734375 289.492188 50.804688 C 284.410156 51.21875 279.097656 51.460938 273.570312 51.460938 Z M 273.570312 51.460938 "/>
<path style=" stroke:none;fill-rule:nonzero;fill:rgb(73.333333%,20%,26.666667%);fill-opacity:1;" d="M 331.554688 38.058594 C 330.195312 39.679688 328.085938 41.207031 325.332031 42.613281 C 328.085938 44.023438 330.195312 45.554688 331.554688 47.171875 C 334.933594 44.210938 334.933594 41.015625 331.554688 38.058594 Z M 331.554688 38.058594 "/>
<path style=" stroke:none;fill-rule:nonzero;fill:rgb(73.333333%,20%,26.666667%);fill-opacity:1;" d="M 316.816406 27.519531 C 312.101562 24.675781 304.335938 22.378906 294.714844 20.984375 C 297.6875 22.4375 299.824219 23.988281 301.25 25.589844 C 306.660156 26.011719 311.894531 26.640625 316.816406 27.519531 Z M 316.816406 27.519531 "/>
<path style=" stroke:none;fill-rule:nonzero;fill:rgb(73.333333%,20%,26.666667%);fill-opacity:1;" d="M 259.070312 16.628906 C 249.0625 15.628906 238.261719 15.628906 228.253906 16.628906 C 233.730469 17.03125 238.902344 17.652344 243.660156 18.46875 C 248.429688 17.652344 253.597656 17.03125 259.070312 16.628906 Z M 259.070312 16.628906 "/>
<path style=" stroke:none;fill-rule:nonzero;fill:rgb(73.333333%,20%,26.666667%);fill-opacity:1;" d="M 192.605469 20.984375 C 182.988281 22.378906 175.230469 24.675781 170.511719 27.519531 C 175.425781 26.640625 180.667969 26.011719 186.078125 25.589844 C 187.507812 23.988281 189.632812 22.4375 192.605469 20.984375 Z M 192.605469 20.984375 "/>
<path style=" stroke:none;fill-rule:nonzero;fill:rgb(73.333333%,20%,26.666667%);fill-opacity:1;" d="M 155.773438 47.167969 C 157.136719 45.550781 159.242188 44.023438 162 42.613281 C 159.238281 41.207031 157.144531 39.679688 155.773438 38.058594 C 152.410156 41.015625 152.410156 44.210938 155.773438 47.167969 Z M 155.773438 47.167969 "/>
<path style=" stroke:none;fill-rule:nonzero;fill:rgb(73.333333%,20%,26.666667%);fill-opacity:1;" d="M 170.515625 57.710938 C 175.230469 60.554688 182.988281 62.847656 192.601562 64.242188 C 189.628906 62.789062 187.503906 61.238281 186.074219 59.640625 C 180.667969 59.21875 175.425781 58.589844 170.515625 57.710938 Z M 170.515625 57.710938 "/>
<path style=" stroke:none;fill-rule:nonzero;fill:rgb(73.333333%,20%,26.666667%);fill-opacity:1;" d="M 228.253906 68.601562 C 238.261719 69.601562 249.070312 69.601562 259.070312 68.601562 C 253.597656 68.199219 248.425781 67.578125 243.660156 66.761719 C 238.902344 67.578125 233.730469 68.199219 228.253906 68.601562 Z M 228.253906 68.601562 "/>
<path style=" stroke:none;fill-rule:nonzero;fill:rgb(73.333333%,20%,26.666667%);fill-opacity:1;" d="M 294.726562 64.242188 C 304.335938 62.847656 312.101562 60.554688 316.816406 57.710938 C 311.894531 58.589844 306.660156 59.21875 301.25 59.640625 C 299.828125 61.242188 297.699219 62.789062 294.726562 64.242188 Z M 294.726562 64.242188 "/>
<path style=" stroke:none;fill-rule:nonzero;fill:rgb(54.117647%,0%,34.901961%);fill-opacity:1;" d="M 176.351562 74.589844 C 177.042969 74.589844 177.386719 74.6875 177.386719 74.886719 C 177.386719 75.003906 177.175781 75.214844 176.753906 75.515625 C 176.332031 75.8125 175.976562 76.113281 175.6875 76.421875 C 175.398438 76.726562 175.015625 77.179688 174.535156 77.777344 C 174.070312 78.371094 173.582031 79.015625 173.0625 79.703125 C 172.5625 80.386719 172.042969 81.089844 171.507812 81.816406 C 169.566406 84.511719 168.074219 86.316406 167.039062 87.238281 C 166 88.160156 165.066406 88.851562 164.242188 89.308594 C 161.589844 90.792969 157.265625 91.535156 151.265625 91.535156 C 148.039062 91.535156 145.425781 91.207031 143.425781 90.546875 C 141.425781 89.886719 140.425781 89.101562 140.425781 88.183594 C 140.425781 87.789062 140.589844 87.449219 140.917969 87.171875 C 141.589844 86.046875 142.214844 84.972656 142.792969 83.957031 C 143.386719 82.933594 144.175781 81.625 145.15625 80.027344 C 146.15625 78.425781 147.519531 76.699219 149.25 74.851562 C 149.652344 74.675781 150.074219 74.589844 150.519531 74.589844 C 151.363281 74.589844 151.785156 74.6875 151.785156 74.886719 C 151.746094 74.953125 151.679688 75.027344 151.585938 75.097656 C 151.507812 75.167969 151.429688 75.234375 151.355469 75.304688 L 150.230469 76.371094 C 149.382812 77.582031 148.308594 79.25 147 81.382812 C 145.710938 83.507812 144.703125 85.09375 143.972656 86.140625 C 143.261719 87.179688 142.90625 87.921875 142.90625 88.363281 C 142.90625 89.035156 143.636719 89.597656 145.097656 90.050781 C 146.558594 90.507812 148.625 90.734375 151.296875 90.734375 C 155.484375 90.734375 158.609375 90.359375 160.664062 89.609375 C 161.800781 89.199219 162.625 88.765625 163.144531 88.3125 L 164.414062 87.214844 C 165.722656 86.035156 167.382812 84.050781 169.402344 81.253906 C 171.4375 78.453125 173.0625 76.457031 174.273438 75.269531 C 174.484375 75.058594 174.792969 74.894531 175.195312 74.777344 C 175.601562 74.652344 175.984375 74.589844 176.351562 74.589844 Z M 195.40625 84.460938 C 195.40625 83.898438 194.886719 83.617188 193.851562 83.617188 C 192.464844 83.617188 189.824219 84.789062 185.921875 87.136719 C 184.152344 88.199219 182.914062 89.003906 182.203125 89.550781 C 181.511719 90.089844 180.992188 90.46875 180.644531 90.691406 C 180.300781 90.914062 179.953125 91.082031 179.609375 91.195312 C 179.28125 91.308594 178.90625 91.363281 178.484375 91.363281 C 178.078125 91.363281 177.839844 91.335938 177.761719 91.28125 C 177.683594 91.21875 177.648438 91.109375 177.648438 90.957031 C 177.648438 90.796875 178.414062 89.457031 179.953125 86.933594 C 181.511719 84.402344 182.402344 83.074219 182.632812 82.941406 C 182.882812 82.8125 183.105469 82.730469 183.296875 82.695312 C 183.488281 82.65625 183.835938 82.636719 184.335938 82.636719 C 184.835938 82.636719 185.21875 82.691406 185.488281 82.804688 C 185.777344 82.917969 185.921875 83.023438 185.921875 83.113281 C 185.921875 83.199219 185.882812 83.285156 185.804688 83.367188 C 185.671875 83.523438 185.46875 83.710938 185.199219 83.941406 C 184.277344 84.71875 183.394531 85.820312 182.546875 87.246094 L 181.941406 88.277344 C 182.386719 88.007812 182.882812 87.679688 183.441406 87.296875 C 184 86.910156 184.824219 86.359375 185.921875 85.644531 C 187.015625 84.929688 188.238281 84.289062 189.582031 83.726562 C 191.3125 82.988281 192.925781 82.617188 194.425781 82.617188 C 197.058594 82.617188 198.375 83.246094 198.375 84.503906 C 198.375 84.972656 198.144531 85.5625 197.683594 86.265625 C 197.242188 86.972656 196.742188 87.742188 196.183594 88.578125 C 195.648438 89.414062 195.347656 90.101562 195.292969 90.648438 L 194.945312 91.117188 C 194.945312 91.242188 194.878906 91.332031 194.742188 91.390625 C 194.628906 91.441406 194.253906 91.46875 193.617188 91.46875 C 193.003906 91.46875 192.550781 91.433594 192.265625 91.363281 C 191.996094 91.296875 191.910156 91.175781 192.003906 91 L 194.886719 85.898438 C 195.234375 85.269531 195.40625 84.789062 195.40625 84.460938 Z M 212.648438 79.632812 C 213.78125 79.632812 214.347656 79.800781 214.347656 80.136719 C 214.347656 80.625 213.773438 80.902344 212.617188 80.964844 C 212.292969 80.980469 211.9375 80.988281 211.550781 80.988281 C 211.167969 80.988281 210.78125 80.933594 210.398438 80.820312 C 210.015625 80.707031 209.820312 80.5625 209.820312 80.386719 C 209.820312 80.203125 210.121094 80.03125 210.714844 79.875 C 211.3125 79.714844 211.957031 79.632812 212.648438 79.632812 Z M 208.582031 83.617188 L 208.582031 83.445312 C 208.582031 83.367188 208.4375 83.171875 208.148438 82.867188 C 208.148438 82.722656 208.3125 82.59375 208.640625 82.480469 C 208.964844 82.363281 209.359375 82.304688 209.820312 82.304688 C 210.300781 82.304688 210.695312 82.390625 211.003906 82.566406 C 211.3125 82.742188 211.464844 82.9375 211.464844 83.148438 C 211.464844 83.355469 210.5625 84.613281 208.753906 86.914062 C 206.949219 89.214844 206.046875 90.429688 206.046875 90.554688 C 206.046875 90.675781 206.238281 90.734375 206.621094 90.734375 C 206.871094 90.734375 207.226562 90.664062 207.6875 90.519531 C 208.148438 90.375 208.542969 90.300781 208.871094 90.300781 C 209.503906 90.300781 209.820312 90.417969 209.820312 90.65625 C 209.820312 90.890625 209.226562 91.09375 208.035156 91.269531 C 206.84375 91.445312 205.976562 91.535156 205.441406 91.535156 C 204.09375 91.535156 203.421875 91.21875 203.421875 90.582031 C 203.421875 90.449219 203.507812 90.304688 203.679688 90.144531 C 203.875 89.980469 204.066406 89.757812 204.257812 89.472656 C 204.46875 89.183594 204.757812 88.789062 205.121094 88.296875 C 205.507812 87.800781 205.890625 87.289062 206.277344 86.761719 C 206.679688 86.234375 207.160156 85.59375 207.71875 84.84375 C 208.292969 84.085938 208.582031 83.679688 208.582031 83.617188 Z M 226.515625 79.617188 C 231.992188 79.742188 234.730469 80.738281 234.730469 82.601562 C 234.730469 84.460938 232.570312 86.546875 228.246094 88.867188 C 226.820312 89.621094 225.199219 90.355469 223.371094 91.066406 C 222.777344 91.300781 222.246094 91.414062 221.785156 91.414062 C 220.804688 91.414062 220.257812 91.292969 220.144531 91.050781 C 219.449219 89.605469 218.894531 88.289062 218.472656 87.101562 C 218.046875 85.910156 217.441406 84.453125 216.65625 82.738281 C 216.769531 82.625 216.992188 82.527344 217.316406 82.449219 C 217.664062 82.363281 217.980469 82.320312 218.269531 82.320312 C 218.828125 82.320312 219.191406 82.417969 219.363281 82.617188 C 219.789062 83.761719 220.269531 84.953125 220.804688 86.191406 C 221.34375 87.429688 221.890625 88.746094 222.449219 90.144531 C 225.3125 88.808594 227.3125 87.757812 228.445312 86.992188 C 230.773438 85.394531 231.933594 83.980469 231.933594 82.753906 C 231.933594 81.519531 230.722656 80.769531 228.300781 80.496094 C 227.609375 80.417969 226.976562 80.363281 226.398438 80.34375 C 225.824219 80.320312 225.417969 80.292969 225.1875 80.257812 C 224.976562 80.222656 224.871094 80.15625 224.871094 80.050781 C 224.871094 79.800781 225.417969 79.65625 226.515625 79.617188 Z M 249.347656 89.933594 C 250.019531 89.933594 250.355469 90.039062 250.355469 90.246094 C 250.355469 90.492188 249.347656 90.769531 247.332031 91.074219 C 245.3125 91.382812 243.628906 91.535156 242.285156 91.535156 C 240.9375 91.535156 239.929688 91.46875 239.257812 91.339844 C 238.585938 91.207031 238.039062 91.027344 237.613281 90.792969 C 236.789062 90.339844 236.375 89.789062 236.375 89.148438 C 236.375 88.011719 236.953125 86.941406 238.105469 85.933594 C 239.257812 84.929688 240.796875 84.097656 242.71875 83.4375 C 244.640625 82.773438 246.714844 82.4375 248.945312 82.4375 C 250.136719 82.4375 251.070312 82.585938 251.742188 82.882812 C 252.433594 83.171875 252.777344 83.515625 252.777344 83.914062 C 252.777344 84.660156 252.117188 85.289062 250.789062 85.804688 C 249.484375 86.324219 247.867188 86.746094 245.945312 87.078125 C 244.023438 87.40625 241.8125 87.71875 239.316406 88.015625 L 239.199219 89.269531 C 239.199219 90.246094 240.199219 90.734375 242.199219 90.734375 C 243.273438 90.734375 244.398438 90.644531 245.570312 90.460938 C 246.761719 90.273438 247.617188 90.140625 248.136719 90.058594 C 248.65625 89.976562 249.058594 89.933594 249.347656 89.933594 Z M 250.070312 83.949219 C 250.070312 83.492188 249.425781 83.265625 248.136719 83.265625 C 246.984375 83.265625 245.628906 83.574219 244.074219 84.1875 C 242.515625 84.800781 241.226562 85.609375 240.210938 86.617188 C 239.960938 86.859375 239.816406 87.046875 239.777344 87.171875 C 240.546875 87.046875 241.332031 86.925781 242.140625 86.8125 C 242.949219 86.699219 243.734375 86.578125 244.503906 86.453125 C 246.273438 86.164062 247.636719 85.828125 248.597656 85.441406 C 249.578125 85.046875 250.070312 84.550781 250.070312 83.949219 Z M 255.921875 91.332031 L 257.246094 89.25 C 257.941406 88.1875 258.410156 87.433594 258.660156 86.992188 C 258.910156 86.542969 259.1875 86.050781 259.496094 85.515625 C 259.824219 84.976562 260.476562 84.203125 261.457031 83.199219 C 261.417969 83.167969 261.398438 83.144531 261.398438 83.121094 L 261.398438 83.035156 C 261.398438 82.761719 261.753906 82.566406 262.464844 82.449219 C 262.675781 82.40625 262.898438 82.386719 263.128906 82.386719 C 263.957031 82.386719 264.367188 82.5625 264.367188 82.917969 C 264.367188 83.121094 264.089844 83.492188 263.53125 84.023438 C 262.976562 84.554688 262.542969 85.046875 262.234375 85.5 C 262.503906 85.367188 262.832031 85.203125 263.214844 85.003906 C 263.621094 84.804688 264.242188 84.515625 265.089844 84.136719 C 265.953125 83.753906 267.03125 83.394531 268.320312 83.054688 C 269.625 82.707031 270.953125 82.53125 272.296875 82.53125 C 273.660156 82.53125 274.699219 82.640625 275.410156 82.855469 C 275.679688 82.929688 275.816406 83.023438 275.816406 83.136719 C 275.816406 83.253906 275.640625 83.355469 275.296875 83.445312 C 274.949219 83.535156 274.59375 83.582031 274.230469 83.582031 C 273.863281 83.582031 273.507812 83.554688 273.164062 83.496094 C 272.816406 83.433594 272.433594 83.402344 272.007812 83.402344 C 271.585938 83.402344 270.914062 83.503906 269.992188 83.710938 C 266.320312 84.5 263.292969 86.066406 260.910156 88.40625 C 260.273438 89.03125 259.890625 89.464844 259.757812 89.703125 C 259.621094 89.933594 259.507812 90.125 259.410156 90.273438 C 258.832031 91.1875 257.949219 91.644531 256.757812 91.644531 C 256.199219 91.644531 255.921875 91.539062 255.921875 91.332031 Z M 285.675781 83.214844 C 283.753906 83.214844 282.792969 83.542969 282.792969 84.203125 C 282.792969 84.640625 283.136719 85.09375 283.828125 85.558594 C 284.519531 86.027344 285.109375 86.398438 285.589844 86.675781 C 287.453125 87.773438 288.382812 88.613281 288.382812 89.199219 C 288.382812 89.777344 287.789062 90.273438 286.597656 90.683594 C 285.40625 91.09375 283.683594 91.335938 281.4375 91.414062 L 281.0625 91.414062 C 278.890625 91.414062 277.3125 91.019531 276.332031 90.230469 C 276.296875 90.203125 276.277344 90.175781 276.277344 90.152344 L 276.277344 90.070312 C 276.277344 89.949219 276.402344 89.851562 276.652344 89.777344 C 276.902344 89.699219 277.167969 89.652344 277.457031 89.632812 L 277.773438 89.632812 C 278.160156 89.632812 278.46875 89.679688 278.699219 89.769531 C 278.949219 89.863281 279.179688 89.964844 279.390625 90.078125 C 279.601562 90.183594 279.832031 90.285156 280.082031 90.375 C 280.332031 90.46875 280.765625 90.511719 281.378906 90.511719 C 282.6875 90.511719 283.722656 90.394531 284.492188 90.152344 C 285.28125 89.910156 285.675781 89.640625 285.675781 89.34375 C 285.675781 89.050781 285.53125 88.773438 285.242188 88.515625 C 284.761719 88.078125 283.933594 87.535156 282.761719 86.878906 C 280.800781 85.804688 279.820312 84.972656 279.820312 84.375 C 279.820312 83.777344 280.332031 83.289062 281.351562 82.90625 C 282.367188 82.527344 283.808594 82.335938 285.675781 82.335938 C 286.828125 82.335938 287.816406 82.40625 288.644531 82.550781 C 290.199219 82.816406 290.980469 83.117188 290.980469 83.453125 C 290.980469 83.785156 290.507812 83.949219 289.566406 83.949219 C 289.222656 83.949219 288.933594 83.910156 288.703125 83.835938 C 288.492188 83.757812 288.257812 83.671875 288.011719 83.582031 C 287.335938 83.335938 286.558594 83.214844 285.675781 83.214844 Z M 303.808594 79.632812 C 304.941406 79.632812 305.511719 79.800781 305.511719 80.136719 C 305.511719 80.625 304.933594 80.902344 303.78125 80.964844 C 303.453125 80.980469 303.097656 80.988281 302.714844 80.988281 C 302.328125 80.988281 301.945312 80.933594 301.558594 80.820312 C 301.175781 80.707031 300.984375 80.5625 300.984375 80.386719 C 300.984375 80.203125 301.28125 80.03125 301.878906 79.875 C 302.472656 79.714844 303.117188 79.632812 303.808594 79.632812 Z M 299.742188 83.617188 L 299.742188 83.445312 C 299.742188 83.367188 299.601562 83.171875 299.3125 82.867188 C 299.3125 82.722656 299.476562 82.59375 299.800781 82.480469 C 300.128906 82.363281 300.523438 82.304688 300.984375 82.304688 C 301.464844 82.304688 301.859375 82.390625 302.164062 82.566406 C 302.472656 82.742188 302.625 82.9375 302.625 83.148438 C 302.625 83.355469 301.722656 84.613281 299.917969 86.914062 C 298.109375 89.214844 297.207031 90.429688 297.207031 90.554688 C 297.207031 90.675781 297.398438 90.734375 297.785156 90.734375 C 298.035156 90.734375 298.390625 90.664062 298.851562 90.519531 C 299.3125 90.375 299.707031 90.300781 300.03125 90.300781 C 300.667969 90.300781 300.984375 90.417969 300.984375 90.65625 C 300.984375 90.890625 300.386719 91.09375 299.195312 91.269531 C 298.003906 91.445312 297.140625 91.535156 296.601562 91.535156 C 295.257812 91.535156 294.582031 91.21875 294.582031 90.582031 C 294.582031 90.449219 294.667969 90.304688 294.84375 90.144531 C 295.035156 89.980469 295.226562 89.757812 295.417969 89.472656 C 295.628906 89.183594 295.917969 88.789062 296.285156 88.296875 C 296.667969 87.800781 297.054688 87.289062 297.4375 86.761719 C 297.839844 86.234375 298.320312 85.59375 298.878906 84.84375 C 299.457031 84.085938 299.742188 83.679688 299.742188 83.617188 Z M 313.238281 83.335938 C 311.601562 83.335938 310.191406 83.363281 309 83.417969 C 308.210938 83.398438 307.816406 83.296875 307.816406 83.121094 C 307.816406 83.019531 307.960938 82.914062 308.25 82.804688 C 308.535156 82.699219 308.921875 82.636719 309.402344 82.617188 L 313.667969 82.652344 C 313.746094 82.53125 313.824219 82.390625 313.898438 82.226562 C 313.996094 82.054688 314.148438 81.8125 314.359375 81.492188 C 314.589844 81.167969 314.898438 80.875 315.285156 80.613281 C 315.6875 80.355469 316.207031 80.222656 316.839844 80.222656 C 317.472656 80.222656 317.792969 80.328125 317.792969 80.539062 L 317.792969 80.648438 C 317.234375 81.355469 316.761719 82.015625 316.378906 82.636719 L 320.617188 82.636719 C 322.117188 82.636719 323.027344 82.667969 323.355469 82.738281 C 323.703125 82.804688 323.875 82.890625 323.875 82.992188 C 323.875 83.191406 323.460938 83.324219 322.636719 83.386719 C 322.210938 83.417969 321.355469 83.4375 320.070312 83.4375 C 318.800781 83.4375 317.417969 83.417969 315.917969 83.386719 C 315.550781 83.953125 314.734375 85.015625 313.46875 86.574219 C 312.21875 88.132812 311.59375 89.136719 311.59375 89.589844 C 311.59375 90.039062 311.765625 90.335938 312.113281 90.476562 C 312.363281 90.570312 312.785156 90.613281 313.378906 90.613281 C 313.976562 90.613281 314.484375 90.5625 314.910156 90.460938 C 315.332031 90.359375 315.714844 90.246094 316.0625 90.128906 C 316.40625 90.003906 316.746094 89.890625 317.070312 89.789062 C 317.417969 89.683594 317.792969 89.632812 318.195312 89.632812 C 318.984375 89.632812 319.378906 89.75 319.378906 89.984375 C 319.378906 90.101562 318.972656 90.300781 318.167969 90.582031 C 317.378906 90.851562 316.648438 91.0625 315.976562 91.210938 C 315.300781 91.359375 314.324219 91.433594 313.035156 91.433594 C 311.746094 91.433594 310.863281 91.367188 310.382812 91.238281 C 309.382812 90.976562 308.882812 90.558594 308.882812 89.984375 C 308.882812 89.6875 309 89.339844 309.230469 88.933594 L 309.777344 87.945312 C 310.140625 87.457031 310.46875 87.03125 310.757812 86.667969 C 311.046875 86.296875 311.296875 85.972656 311.507812 85.695312 C 311.71875 85.417969 311.996094 85.054688 312.34375 84.613281 C 312.6875 84.164062 312.988281 83.738281 313.238281 83.335938 Z M 343.363281 83.742188 C 343.804688 83.226562 344.191406 82.898438 344.515625 82.761719 C 344.84375 82.621094 345.324219 82.550781 345.957031 82.550781 C 346.59375 82.550781 346.910156 82.617188 346.910156 82.753906 C 346.910156 82.890625 346.046875 84.082031 344.316406 86.328125 C 342.605469 88.566406 341.441406 90.101562 340.828125 90.929688 C 341.597656 90.730469 342.277344 90.542969 342.875 90.367188 C 343.46875 90.191406 344 90.042969 344.460938 89.925781 C 344.921875 89.804688 345.324219 89.746094 345.671875 89.746094 C 346.402344 89.746094 346.765625 89.839844 346.765625 90.035156 C 346.765625 90.152344 346.613281 90.269531 346.304688 90.382812 C 344.152344 90.953125 342.105469 91.453125 340.164062 91.886719 C 338.511719 94.574219 336.933594 96.34375 335.4375 97.195312 C 335.03125 97.429688 334.503906 97.652344 333.851562 97.859375 C 332.292969 98.382812 330.515625 98.644531 328.515625 98.644531 C 326.519531 98.644531 324.96875 98.429688 323.875 97.996094 C 322.78125 97.558594 322.230469 97.136719 322.230469 96.726562 C 322.230469 96.3125 322.40625 95.953125 322.75 95.652344 C 323.097656 95.351562 323.566406 95.074219 324.164062 94.824219 C 324.757812 94.574219 325.460938 94.34375 326.269531 94.136719 C 327.074219 93.917969 327.941406 93.710938 328.863281 93.511719 C 329.785156 93.3125 330.738281 93.117188 331.714844 92.925781 C 332.714844 92.730469 333.707031 92.527344 334.6875 92.3125 L 337.570312 91.664062 C 337.78125 91.414062 338.511719 90.691406 339.761719 89.496094 C 341.007812 88.304688 341.738281 87.59375 341.953125 87.367188 C 340.296875 88.792969 338.269531 89.902344 335.867188 90.699219 C 334.253906 91.234375 332.714844 91.5 331.253906 91.5 C 329.792969 91.5 328.59375 91.328125 327.652344 90.980469 C 326.710938 90.632812 326.238281 90.144531 326.238281 89.515625 C 326.238281 88.539062 327.179688 86.996094 329.0625 84.894531 C 330.007812 83.847656 330.476562 83.28125 330.476562 83.191406 C 330.398438 83.023438 330.4375 82.910156 330.59375 82.847656 C 331.148438 82.625 331.804688 82.515625 332.554688 82.515625 C 333.300781 82.515625 333.675781 82.628906 333.675781 82.855469 C 333.675781 83.066406 332.945312 84.046875 331.484375 85.796875 C 330.023438 87.546875 329.296875 88.722656 329.296875 89.320312 C 329.296875 89.910156 329.535156 90.28125 330.015625 90.4375 C 330.515625 90.589844 331.121094 90.664062 331.832031 90.664062 C 333.351562 90.664062 334.945312 90.292969 336.617188 89.550781 C 338.289062 88.804688 339.722656 87.777344 340.914062 86.472656 C 342.125 85.164062 342.941406 84.253906 343.363281 83.742188 Z M 336.097656 93.8125 L 336.847656 92.675781 C 335.273438 93.035156 333.773438 93.355469 332.351562 93.640625 C 330.949219 93.925781 329.71875 94.210938 328.660156 94.492188 C 326.375 95.105469 325.230469 95.792969 325.230469 96.546875 C 325.230469 97.023438 325.757812 97.394531 326.816406 97.65625 C 327.257812 97.757812 327.84375 97.808594 328.574219 97.808594 C 329.324219 97.808594 330.007812 97.734375 330.621094 97.585938 C 331.253906 97.441406 331.824219 97.25 332.320312 97.015625 C 332.820312 96.785156 333.265625 96.519531 333.648438 96.222656 C 334.050781 95.929688 334.40625 95.632812 334.714844 95.335938 C 335.023438 95.042969 335.28125 94.761719 335.492188 94.492188 C 335.722656 94.21875 335.925781 93.992188 336.097656 93.8125 Z M 336.097656 93.8125 "/>
<path style=" stroke:none;fill-rule:nonzero;fill:rgb(54.117647%,0%,34.901961%);fill-opacity:1;" d="M 63.015625 104.300781 C 63.535156 104.023438 64.101562 103.882812 64.71875 103.882812 C 65.351562 103.882812 65.667969 103.96875 65.667969 104.136719 C 65.667969 104.15625 65.667969 104.171875 65.667969 104.191406 C 64.496094 109.96875 63.84375 115.28125 63.710938 120.132812 C 63.960938 120.277344 63.949219 120.425781 63.679688 120.574219 C 63.21875 120.851562 62.679688 120.992188 62.066406 120.992188 C 61.316406 120.992188 60.914062 120.796875 60.855469 120.402344 C 60.835938 120.289062 60.828125 119.929688 60.828125 119.320312 C 60.828125 118.714844 60.875 117.847656 60.96875 116.730469 C 61.085938 115.609375 61.210938 114.488281 61.34375 113.363281 C 61.5 112.230469 61.652344 111.105469 61.804688 109.988281 C 61.960938 108.859375 62.085938 107.75 62.179688 106.652344 C 60.277344 107.910156 56.972656 109.859375 52.261719 112.507812 C 47.574219 115.152344 44.421875 116.953125 42.808594 117.914062 C 42.363281 118.160156 41.867188 118.28125 41.308594 118.28125 C 40.75 118.28125 40.367188 118.199219 40.15625 118.035156 C 39.15625 116.667969 37.636719 114.636719 35.601562 111.9375 C 33.5625 109.238281 32.167969 107.339844 31.417969 106.234375 C 30.132812 108.167969 28.09375 110.832031 25.308594 114.230469 C 22.519531 117.628906 20.800781 119.761719 20.148438 120.625 C 19.761719 120.859375 19.214844 120.976562 18.503906 120.976562 C 17.90625 120.976562 17.570312 120.859375 17.496094 120.625 C 18.742188 118.597656 20.867188 115.742188 23.867188 112.066406 C 26.863281 108.382812 28.929688 105.800781 30.0625 104.316406 C 30.179688 104.203125 30.402344 104.105469 30.726562 104.027344 C 31.074219 103.941406 31.390625 103.898438 31.679688 103.898438 C 32.234375 103.898438 32.601562 103.996094 32.773438 104.191406 C 34.40625 106.28125 36.050781 108.511719 37.703125 110.882812 C 39.375 113.25 40.742188 115.101562 41.796875 116.429688 C 44.429688 115.089844 46.871094 113.757812 49.121094 112.433594 C 51.371094 111.109375 53.582031 109.800781 55.753906 108.511719 C 57.941406 107.222656 60.363281 105.816406 63.015625 104.300781 Z M 72.703125 120.777344 C 70.457031 120.777344 69.332031 120.359375 69.332031 119.527344 C 69.332031 118.691406 70.378906 117.667969 72.472656 116.457031 C 74.589844 115.242188 77.066406 114.191406 79.910156 113.3125 C 82.757812 112.425781 85.074219 111.980469 86.859375 111.980469 C 88.667969 111.980469 89.695312 112.214844 89.945312 112.679688 C 90.023438 112.820312 90.078125 112.972656 90.117188 113.132812 C 90.289062 113.097656 90.503906 113.082031 90.753906 113.082031 C 91.65625 113.082031 92.105469 113.207031 92.105469 113.464844 L 92.105469 113.53125 C 92.105469 113.550781 91.867188 113.804688 91.386719 114.300781 C 90.90625 114.792969 90.359375 115.617188 89.742188 116.773438 C 89.128906 117.925781 88.820312 118.910156 88.820312 119.730469 C 88.992188 119.765625 89.195312 119.804688 89.425781 119.847656 C 89.65625 119.890625 89.945312 119.953125 90.289062 120.046875 C 90.636719 120.132812 90.808594 120.234375 90.808594 120.351562 C 90.808594 120.472656 90.683594 120.578125 90.433594 120.675781 C 90.183594 120.765625 89.828125 120.8125 89.367188 120.8125 C 88.425781 120.8125 87.570312 120.671875 86.800781 120.386719 C 86.054688 120.101562 85.679688 119.796875 85.679688 119.464844 C 85.679688 118.753906 86.332031 117.535156 87.636719 115.800781 C 86.003906 116.8125 83.890625 117.785156 81.296875 118.722656 C 78.699219 119.660156 76.902344 120.238281 75.90625 120.453125 C 74.925781 120.671875 73.859375 120.777344 72.703125 120.777344 Z M 72.273438 119.558594 C 72.273438 119.769531 72.570312 119.875 73.164062 119.875 C 73.589844 119.875 73.945312 119.832031 74.234375 119.746094 C 78.210938 118.734375 81.777344 117.335938 84.929688 115.542969 C 86.714844 114.523438 87.65625 113.933594 87.753906 113.78125 C 87.871094 113.625 87.925781 113.496094 87.925781 113.386719 C 87.925781 113.28125 87.832031 113.175781 87.636719 113.082031 C 87.445312 112.984375 87.175781 112.9375 86.832031 112.9375 C 86.484375 112.9375 85.976562 112.988281 85.304688 113.097656 C 83.824219 113.335938 81.996094 113.84375 79.824219 114.625 C 77.671875 115.402344 75.875 116.25 74.433594 117.164062 C 72.992188 118.078125 72.273438 118.878906 72.273438 119.558594 Z M 115.027344 113.875 C 115.027344 113.3125 114.507812 113.03125 113.46875 113.03125 C 112.085938 113.03125 109.445312 114.203125 105.542969 116.550781 C 103.773438 117.613281 102.535156 118.417969 101.824219 118.964844 C 101.132812 119.503906 100.613281 119.882812 100.265625 120.105469 C 99.921875 120.328125 99.574219 120.496094 99.226562 120.609375 C 98.902344 120.722656 98.527344 120.777344 98.105469 120.777344 C 97.699219 120.777344 97.460938 120.75 97.382812 120.695312 C 97.304688 120.632812 97.269531 120.523438 97.269531 120.371094 C 97.269531 120.210938 98.035156 118.871094 99.574219 116.347656 C 101.132812 113.816406 102.023438 112.488281 102.253906 112.355469 C 102.503906 112.226562 102.726562 112.144531 102.917969 112.109375 C 103.109375 112.070312 103.457031 112.050781 103.957031 112.050781 C 104.457031 112.050781 104.839844 112.105469 105.109375 112.21875 C 105.398438 112.332031 105.542969 112.4375 105.542969 112.527344 C 105.542969 112.613281 105.503906 112.695312 105.425781 112.78125 C 105.292969 112.9375 105.089844 113.125 104.820312 113.355469 C 103.898438 114.132812 103.015625 115.234375 102.167969 116.660156 L 101.5625 117.691406 C 102.003906 117.421875 102.503906 117.09375 103.0625 116.710938 C 103.621094 116.324219 104.445312 115.773438 105.542969 115.058594 C 106.636719 114.34375 107.859375 113.703125 109.203125 113.140625 C 110.933594 112.402344 112.546875 112.03125 114.046875 112.03125 C 116.679688 112.03125 117.996094 112.660156 117.996094 113.917969 C 117.996094 114.386719 117.765625 114.976562 117.304688 115.679688 C 116.863281 116.386719 116.363281 117.15625 115.804688 117.992188 C 115.269531 118.828125 114.96875 119.515625 114.914062 120.0625 L 114.566406 120.53125 C 114.566406 120.65625 114.5 120.746094 114.363281 120.804688 C 114.25 120.855469 113.875 120.882812 113.238281 120.882812 C 112.625 120.882812 112.171875 120.847656 111.886719 120.777344 C 111.617188 120.710938 111.53125 120.589844 111.625 120.414062 L 114.507812 115.3125 C 114.855469 114.683594 115.027344 114.203125 115.027344 113.875 Z M 125.550781 120.777344 C 123.300781 120.777344 122.175781 120.359375 122.175781 119.527344 C 122.175781 118.691406 123.226562 117.667969 125.320312 116.457031 C 127.433594 115.242188 129.914062 114.191406 132.757812 113.3125 C 135.601562 112.425781 137.917969 111.980469 139.707031 111.980469 C 141.511719 111.980469 142.542969 112.214844 142.792969 112.679688 C 142.867188 112.820312 142.925781 112.972656 142.964844 113.132812 C 143.136719 113.097656 143.347656 113.082031 143.597656 113.082031 C 144.5 113.082031 144.953125 113.207031 144.953125 113.464844 L 144.953125 113.53125 C 144.953125 113.550781 144.714844 113.804688 144.234375 114.300781 C 143.753906 114.792969 143.203125 115.617188 142.589844 116.773438 C 141.972656 117.925781 141.667969 118.910156 141.667969 119.730469 C 141.839844 119.765625 142.042969 119.804688 142.273438 119.847656 C 142.503906 119.890625 142.792969 119.953125 143.136719 120.046875 C 143.484375 120.132812 143.65625 120.234375 143.65625 120.351562 C 143.65625 120.472656 143.53125 120.578125 143.28125 120.675781 C 143.03125 120.765625 142.675781 120.8125 142.214844 120.8125 C 141.273438 120.8125 140.417969 120.671875 139.648438 120.386719 C 138.898438 120.101562 138.523438 119.796875 138.523438 119.464844 C 138.523438 118.753906 139.175781 117.535156 140.484375 115.800781 C 138.851562 116.8125 136.738281 117.785156 134.140625 118.722656 C 131.546875 119.660156 129.75 120.238281 128.75 120.453125 C 127.769531 120.671875 126.703125 120.777344 125.550781 120.777344 Z M 125.117188 119.558594 C 125.117188 119.769531 125.414062 119.875 126.011719 119.875 C 126.433594 119.875 126.789062 119.832031 127.078125 119.746094 C 131.058594 118.734375 134.621094 117.335938 137.773438 115.542969 C 139.5625 114.523438 140.503906 113.933594 140.601562 113.78125 C 140.714844 113.625 140.773438 113.496094 140.773438 113.386719 C 140.773438 113.28125 140.675781 113.175781 140.484375 113.082031 C 140.292969 112.984375 140.023438 112.9375 139.675781 112.9375 C 139.332031 112.9375 138.820312 112.988281 138.148438 113.097656 C 136.667969 113.335938 134.84375 113.84375 132.671875 114.625 C 130.519531 115.402344 128.722656 116.25 127.28125 117.164062 C 125.839844 118.078125 125.117188 118.878906 125.117188 119.558594 Z M 168.363281 112.117188 C 168.996094 112.117188 169.316406 112.214844 169.316406 112.40625 C 169.316406 112.59375 169.199219 112.78125 168.96875 112.960938 C 168.738281 113.144531 168.488281 113.378906 168.21875 113.667969 C 167.96875 113.953125 167.605469 114.390625 167.125 114.980469 C 166.644531 115.574219 166.171875 116.171875 165.710938 116.78125 C 165.25 117.382812 164.796875 117.984375 164.355469 118.585938 C 163.933594 119.191406 163.511719 119.769531 163.085938 120.328125 C 163.816406 120.179688 164.539062 120.007812 165.25 119.816406 C 165.980469 119.621094 166.585938 119.46875 167.066406 119.355469 C 167.566406 119.234375 167.988281 119.175781 168.335938 119.175781 C 169.066406 119.175781 169.429688 119.273438 169.429688 119.464844 C 169.429688 119.621094 169.265625 119.734375 168.941406 119.816406 C 166.5 120.367188 164.433594 120.820312 162.742188 121.179688 L 161.039062 123.746094 C 159.886719 125.480469 158.417969 126.644531 156.628906 127.242188 C 155.207031 127.707031 153.554688 127.941406 151.671875 127.941406 C 149.804688 127.941406 148.230469 127.753906 146.941406 127.375 C 145.675781 126.996094 145.039062 126.492188 145.039062 125.859375 C 145.039062 124.949219 146.625 124.085938 149.796875 123.269531 C 151.085938 122.9375 152.816406 122.539062 154.988281 122.066406 C 157.175781 121.59375 158.898438 121.203125 160.148438 120.898438 C 160.320312 120.640625 160.523438 120.363281 160.753906 120.0625 C 161.003906 119.753906 161.222656 119.476562 161.414062 119.226562 C 161.609375 118.976562 161.800781 118.730469 161.992188 118.484375 C 162.183594 118.242188 162.355469 118.007812 162.511719 117.785156 C 162.683594 117.566406 162.835938 117.375 162.972656 117.214844 C 161.914062 118.222656 160.820312 118.984375 159.6875 119.5 C 157.589844 120.445312 155.8125 120.914062 154.351562 120.914062 C 152.910156 120.914062 151.738281 120.753906 150.835938 120.429688 C 149.949219 120.105469 149.507812 119.671875 149.507812 119.132812 C 149.507812 118.140625 150.144531 117.085938 151.410156 115.980469 C 152.679688 114.867188 154.429688 113.90625 156.660156 113.105469 C 158.886719 112.300781 161.328125 111.894531 163.980469 111.894531 C 165.328125 111.894531 166.527344 111.988281 167.585938 112.167969 C 167.816406 112.132812 168.074219 112.117188 168.363281 112.117188 Z M 154.007812 116.105469 C 152.796875 117.101562 152.191406 118.015625 152.191406 118.84375 C 152.191406 119.667969 152.921875 120.078125 154.382812 120.078125 C 155.667969 120.078125 157.148438 119.714844 158.820312 118.980469 C 160.511719 118.246094 161.859375 117.371094 162.855469 116.355469 C 163.875 115.332031 164.644531 114.539062 165.164062 113.976562 C 165.683594 113.40625 166.039062 113.019531 166.230469 112.816406 C 165.613281 112.664062 164.855469 112.585938 163.953125 112.585938 C 162.203125 112.585938 160.417969 112.925781 158.589844 113.601562 C 156.765625 114.277344 155.234375 115.113281 154.007812 116.105469 Z M 158.792969 123.226562 L 159.6875 121.84375 C 158.246094 122.195312 156.8125 122.53125 155.390625 122.851562 C 153.988281 123.164062 152.726562 123.476562 151.613281 123.789062 C 149.152344 124.488281 147.921875 125.148438 147.921875 125.773438 C 147.921875 126.394531 148.382812 126.785156 149.308594 126.949219 C 149.710938 127.023438 150.324219 127.0625 151.152344 127.0625 C 152.84375 127.0625 154.265625 126.792969 155.417969 126.25 C 156.589844 125.707031 157.714844 124.699219 158.792969 123.226562 Z M 185.113281 119.347656 C 185.785156 119.347656 186.125 119.453125 186.125 119.660156 C 186.125 119.90625 185.113281 120.183594 183.097656 120.488281 C 181.078125 120.796875 179.394531 120.949219 178.050781 120.949219 C 176.707031 120.949219 175.695312 120.882812 175.023438 120.753906 C 174.351562 120.621094 173.804688 120.441406 173.378906 120.207031 C 172.554688 119.753906 172.140625 119.203125 172.140625 118.5625 C 172.140625 117.425781 172.71875 116.355469 173.871094 115.347656 C 175.023438 114.34375 176.5625 113.511719 178.484375 112.851562 C 180.40625 112.1875 182.480469 111.851562 184.710938 111.851562 C 185.902344 111.851562 186.835938 112 187.507812 112.296875 C 188.199219 112.585938 188.546875 112.929688 188.546875 113.328125 C 188.546875 114.074219 187.882812 114.703125 186.554688 115.21875 C 185.25 115.738281 183.632812 116.160156 181.710938 116.492188 C 179.789062 116.820312 177.578125 117.132812 175.082031 117.429688 L 174.964844 118.683594 C 174.964844 119.660156 175.964844 120.148438 177.964844 120.148438 C 179.039062 120.148438 180.164062 120.058594 181.335938 119.875 C 182.527344 119.6875 183.382812 119.554688 183.902344 119.472656 C 184.421875 119.390625 184.824219 119.347656 185.113281 119.347656 Z M 185.835938 113.363281 C 185.835938 112.90625 185.191406 112.679688 183.902344 112.679688 C 182.75 112.679688 181.394531 112.988281 179.839844 113.601562 C 178.28125 114.214844 176.992188 115.023438 175.976562 116.03125 C 175.726562 116.273438 175.582031 116.460938 175.542969 116.585938 C 176.3125 116.460938 177.097656 116.339844 177.90625 116.226562 C 178.714844 116.113281 179.5 115.992188 180.269531 115.867188 C 182.039062 115.578125 183.402344 115.242188 184.363281 114.855469 C 185.34375 114.460938 185.835938 113.964844 185.835938 113.363281 Z M 191.6875 120.777344 C 191.996094 120.507812 192.265625 120.171875 192.496094 119.78125 C 192.746094 119.382812 193.0625 119.015625 193.445312 118.683594 C 195.078125 116.753906 196.425781 114.710938 197.480469 112.550781 C 197.539062 112.449219 197.578125 112.351562 197.597656 112.261719 C 197.636719 112.171875 197.925781 112.035156 198.460938 111.851562 C 198.867188 111.808594 199.164062 111.785156 199.355469 111.785156 C 199.894531 111.785156 200.25 111.882812 200.421875 112.082031 L 200.421875 112.21875 C 200.347656 113.050781 199.914062 113.953125 199.125 114.929688 L 197.65625 116.761719 C 198.078125 116.503906 198.539062 116.199219 199.039062 115.859375 C 201.152344 114.417969 203.125 113.394531 204.949219 112.800781 C 206.777344 112.195312 208.753906 111.894531 210.886719 111.894531 C 212.0625 111.894531 213.023438 112.039062 213.773438 112.320312 C 214.519531 112.601562 214.894531 112.925781 214.894531 113.300781 C 214.894531 113.359375 214.886719 113.410156 214.867188 113.457031 C 214.847656 113.496094 214.839844 113.539062 214.839844 113.582031 C 216.972656 112.816406 219.191406 112.292969 221.5 112.015625 C 222.210938 111.925781 222.921875 111.878906 223.632812 111.878906 C 224.363281 111.878906 225.054688 111.980469 225.707031 112.1875 C 226.359375 112.382812 226.6875 112.65625 226.6875 112.996094 C 226.6875 113.335938 226.5625 113.703125 226.3125 114.09375 C 226.0625 114.488281 225.746094 114.882812 225.363281 115.28125 C 224.996094 115.679688 224.574219 116.082031 224.09375 116.492188 C 223.632812 116.894531 223.027344 117.457031 222.277344 118.179688 C 221.527344 118.902344 221.085938 119.453125 220.949219 119.839844 C 220.816406 120.222656 220.699219 120.449219 220.605469 120.523438 C 220.527344 120.597656 220.355469 120.683594 220.085938 120.789062 C 219.835938 120.882812 219.480469 120.933594 219.019531 120.933594 C 218.117188 120.933594 217.664062 120.648438 217.664062 120.078125 C 217.664062 119.722656 217.882812 119.335938 218.328125 118.921875 C 218.769531 118.503906 219.125 118.15625 219.394531 117.871094 C 219.683594 117.585938 220.066406 117.246094 220.546875 116.847656 C 221.027344 116.449219 221.625 115.929688 222.335938 115.28125 C 223.046875 114.632812 223.515625 113.9375 223.746094 113.199219 C 223.746094 112.960938 223.640625 112.820312 223.429688 112.78125 C 223.238281 112.738281 222.882812 112.714844 222.363281 112.714844 C 221.84375 112.714844 221.054688 112.8125 220 113.011719 C 218.960938 113.210938 217.902344 113.492188 216.828125 113.855469 C 214.425781 114.691406 212.617188 115.71875 211.40625 116.933594 C 211.0625 117.296875 210.734375 117.609375 210.425781 117.871094 C 210.121094 118.132812 209.707031 118.492188 209.1875 118.945312 C 208.6875 119.402344 208.285156 119.800781 207.976562 120.148438 C 207.6875 120.488281 207.429688 120.703125 207.199219 120.796875 C 206.988281 120.886719 206.632812 120.933594 206.132812 120.933594 C 205.226562 120.933594 204.738281 120.789062 204.660156 120.496094 C 205.121094 119.542969 205.8125 118.699219 206.738281 117.964844 C 207.660156 117.234375 208.410156 116.648438 208.984375 116.21875 C 209.5625 115.785156 210.121094 115.300781 210.65625 114.761719 C 211.195312 114.214844 211.464844 113.746094 211.464844 113.355469 C 211.464844 112.960938 211.050781 112.765625 210.226562 112.765625 C 207.957031 112.765625 204.976562 113.867188 201.289062 116.074219 C 199.308594 117.25 198.105469 118.023438 197.683594 118.398438 C 197.261719 118.777344 196.933594 119.0625 196.703125 119.261719 C 195.433594 120.4375 194.234375 121.027344 193.101562 121.027344 C 192.714844 121.027344 192.378906 121.003906 192.089844 120.957031 C 191.820312 120.90625 191.6875 120.847656 191.6875 120.777344 Z M 244.878906 119.347656 C 245.550781 119.347656 245.886719 119.453125 245.886719 119.660156 C 245.886719 119.90625 244.878906 120.183594 242.863281 120.488281 C 240.84375 120.796875 239.160156 120.949219 237.816406 120.949219 C 236.472656 120.949219 235.460938 120.882812 234.789062 120.753906 C 234.117188 120.621094 233.570312 120.441406 233.144531 120.207031 C 232.320312 119.753906 231.90625 119.203125 231.90625 118.5625 C 231.90625 117.425781 232.484375 116.355469 233.636719 115.347656 C 234.789062 114.34375 236.328125 113.511719 238.25 112.851562 C 240.171875 112.1875 242.246094 111.851562 244.476562 111.851562 C 245.667969 111.851562 246.601562 112 247.273438 112.296875 C 247.964844 112.585938 248.308594 112.929688 248.308594 113.328125 C 248.308594 114.074219 247.648438 114.703125 246.320312 115.21875 C 245.015625 115.738281 243.398438 116.160156 241.476562 116.492188 C 239.554688 116.820312 237.34375 117.132812 234.847656 117.429688 L 234.730469 118.683594 C 234.730469 119.660156 235.730469 120.148438 237.730469 120.148438 C 238.804688 120.148438 239.929688 120.058594 241.101562 119.875 C 242.292969 119.6875 243.148438 119.554688 243.667969 119.472656 C 244.1875 119.390625 244.589844 119.347656 244.878906 119.347656 Z M 245.601562 113.363281 C 245.601562 112.90625 244.957031 112.679688 243.667969 112.679688 C 242.515625 112.679688 241.160156 112.988281 239.605469 113.601562 C 238.046875 114.214844 236.757812 115.023438 235.742188 116.03125 C 235.492188 116.273438 235.347656 116.460938 235.308594 116.585938 C 236.078125 116.460938 236.863281 116.339844 237.671875 116.226562 C 238.480469 116.113281 239.265625 115.992188 240.035156 115.867188 C 241.804688 115.578125 243.167969 115.242188 244.128906 114.855469 C 245.109375 114.460938 245.601562 113.964844 245.601562 113.363281 Z M 269.210938 113.875 C 269.210938 113.3125 268.695312 113.03125 267.65625 113.03125 C 266.273438 113.03125 263.628906 114.203125 259.726562 116.550781 C 257.957031 117.613281 256.71875 118.417969 256.007812 118.964844 C 255.316406 119.503906 254.796875 119.882812 254.453125 120.105469 C 254.105469 120.328125 253.757812 120.496094 253.414062 120.609375 C 253.085938 120.722656 252.710938 120.777344 252.289062 120.777344 C 251.886719 120.777344 251.644531 120.75 251.566406 120.695312 C 251.492188 120.632812 251.453125 120.523438 251.453125 120.371094 C 251.453125 120.210938 252.222656 118.871094 253.757812 116.347656 C 255.316406 113.816406 256.210938 112.488281 256.441406 112.355469 C 256.691406 112.226562 256.910156 112.144531 257.105469 112.109375 C 257.296875 112.070312 257.640625 112.050781 258.140625 112.050781 C 258.640625 112.050781 259.027344 112.105469 259.292969 112.21875 C 259.582031 112.332031 259.726562 112.4375 259.726562 112.527344 C 259.726562 112.613281 259.6875 112.695312 259.613281 112.78125 C 259.476562 112.9375 259.277344 113.125 259.007812 113.355469 C 258.082031 114.132812 257.199219 115.234375 256.355469 116.660156 L 255.75 117.691406 C 256.191406 117.421875 256.691406 117.09375 257.246094 116.710938 C 257.804688 116.324219 258.632812 115.773438 259.726562 115.058594 C 260.824219 114.34375 262.042969 113.703125 263.390625 113.140625 C 265.117188 112.402344 266.734375 112.03125 268.230469 112.03125 C 270.867188 112.03125 272.183594 112.660156 272.183594 113.917969 C 272.183594 114.386719 271.953125 114.976562 271.488281 115.679688 C 271.046875 116.386719 270.546875 117.15625 269.992188 117.992188 C 269.453125 118.828125 269.15625 119.515625 269.097656 120.0625 L 268.75 120.53125 C 268.75 120.65625 268.683594 120.746094 268.550781 120.804688 C 268.433594 120.855469 268.058594 120.882812 267.425781 120.882812 C 266.808594 120.882812 266.359375 120.847656 266.070312 120.777344 C 265.800781 120.710938 265.714844 120.589844 265.808594 120.414062 L 268.695312 115.3125 C 269.039062 114.683594 269.210938 114.203125 269.210938 113.875 Z M 283.253906 112.75 C 281.617188 112.75 280.207031 112.777344 279.015625 112.832031 C 278.226562 112.8125 277.832031 112.710938 277.832031 112.535156 C 277.832031 112.433594 277.976562 112.328125 278.265625 112.21875 C 278.554688 112.113281 278.9375 112.050781 279.417969 112.03125 L 283.683594 112.066406 C 283.761719 111.945312 283.839844 111.804688 283.914062 111.640625 C 284.011719 111.46875 284.164062 111.226562 284.378906 110.90625 C 284.609375 110.582031 284.914062 110.289062 285.300781 110.027344 C 285.703125 109.765625 286.222656 109.636719 286.855469 109.636719 C 287.492188 109.636719 287.808594 109.742188 287.808594 109.953125 L 287.808594 110.0625 C 287.25 110.769531 286.78125 111.429688 286.394531 112.050781 L 290.632812 112.050781 C 292.132812 112.050781 293.046875 112.082031 293.371094 112.152344 C 293.71875 112.21875 293.890625 112.304688 293.890625 112.40625 C 293.890625 112.605469 293.476562 112.738281 292.652344 112.800781 C 292.230469 112.832031 291.375 112.851562 290.085938 112.851562 C 288.816406 112.851562 287.433594 112.832031 285.933594 112.800781 C 285.570312 113.367188 284.753906 114.429688 283.484375 115.988281 C 282.234375 117.546875 281.609375 118.550781 281.609375 119.003906 C 281.609375 119.453125 281.78125 119.75 282.128906 119.890625 C 282.378906 119.984375 282.800781 120.027344 283.398438 120.027344 C 283.992188 120.027344 284.503906 119.976562 284.925781 119.875 C 285.347656 119.773438 285.730469 119.660156 286.078125 119.542969 C 286.425781 119.417969 286.761719 119.304688 287.085938 119.203125 C 287.433594 119.097656 287.808594 119.046875 288.210938 119.046875 C 289 119.046875 289.394531 119.164062 289.394531 119.398438 C 289.394531 119.515625 288.988281 119.714844 288.183594 119.996094 C 287.394531 120.265625 286.664062 120.476562 285.992188 120.625 C 285.320312 120.773438 284.339844 120.847656 283.050781 120.847656 C 281.761719 120.847656 280.878906 120.78125 280.398438 120.652344 C 279.398438 120.390625 278.898438 119.972656 278.898438 119.398438 C 278.898438 119.101562 279.015625 118.753906 279.246094 118.347656 L 279.792969 117.359375 C 280.160156 116.871094 280.484375 116.445312 280.773438 116.082031 C 281.0625 115.710938 281.3125 115.386719 281.523438 115.109375 C 281.734375 114.832031 282.011719 114.46875 282.359375 114.027344 C 282.703125 113.578125 283.003906 113.152344 283.253906 112.75 Z M 343.421875 103.898438 C 348.015625 103.898438 351.050781 104.632812 352.53125 106.097656 C 352.6875 106.171875 352.761719 106.265625 352.761719 106.371094 C 352.761719 106.472656 352.589844 106.570312 352.242188 106.660156 C 351.917969 106.753906 351.582031 106.796875 351.234375 106.796875 C 350.640625 106.796875 350.285156 106.691406 350.167969 106.472656 C 349.898438 105.960938 349.167969 105.527344 347.976562 105.167969 C 346.785156 104.8125 345.265625 104.632812 343.421875 104.632812 C 341.578125 104.632812 340.183594 104.824219 339.242188 105.203125 C 338.300781 105.585938 337.828125 106.035156 337.828125 106.550781 C 337.828125 107.066406 338.058594 107.597656 338.519531 108.144531 C 339 108.691406 339.597656 109.234375 340.308594 109.78125 C 341.019531 110.328125 341.777344 110.871094 342.585938 111.417969 C 343.414062 111.964844 344.179688 112.511719 344.890625 113.0625 C 346.546875 114.34375 347.371094 115.492188 347.371094 116.515625 C 347.371094 117.535156 346.421875 118.464844 344.515625 119.3125 C 342.078125 120.421875 338.230469 120.976562 332.984375 120.976562 C 328.96875 120.976562 325.488281 120.679688 322.546875 120.089844 C 319.628906 119.496094 318.167969 118.648438 318.167969 117.546875 C 318.167969 116.445312 319.28125 115.492188 321.511719 114.691406 C 322.316406 114.402344 323.308594 114.105469 324.480469 113.796875 C 324.863281 113.699219 325.230469 113.652344 325.574219 113.652344 C 326.34375 113.652344 326.730469 113.746094 326.730469 113.933594 C 326.730469 114.03125 326.644531 114.117188 326.46875 114.199219 C 324.507812 114.730469 323.210938 115.175781 322.578125 115.527344 C 321.519531 116.140625 320.992188 116.730469 320.992188 117.300781 C 320.992188 117.867188 321.328125 118.324219 322 118.664062 C 322.671875 119.003906 323.566406 119.289062 324.683594 119.515625 C 326.875 119.972656 329.71875 120.199219 333.214844 120.199219 C 336.734375 120.199219 339.578125 119.789062 341.75 118.972656 C 343.613281 118.273438 344.546875 117.421875 344.546875 116.414062 C 344.546875 115.402344 342.949219 113.800781 339.761719 111.605469 C 336.570312 109.414062 334.972656 107.890625 334.972656 107.035156 C 334.972656 106.179688 335.667969 105.441406 337.050781 104.828125 C 338.433594 104.210938 340.558594 103.898438 343.421875 103.898438 Z M 370.953125 113.15625 C 371.398438 112.640625 371.78125 112.3125 372.109375 112.175781 C 372.433594 112.035156 372.914062 111.964844 373.550781 111.964844 C 374.183594 111.964844 374.5 112.03125 374.5 112.167969 C 374.5 112.304688 373.636719 113.496094 371.90625 115.742188 C 370.195312 117.980469 369.03125 119.515625 368.417969 120.34375 C 369.1875 120.144531 369.867188 119.957031 370.464844 119.78125 C 371.0625 119.605469 371.589844 119.457031 372.050781 119.339844 C 372.511719 119.21875 372.914062 119.160156 373.261719 119.160156 C 373.992188 119.160156 374.355469 119.253906 374.355469 119.449219 C 374.355469 119.566406 374.203125 119.683594 373.894531 119.796875 C 371.742188 120.367188 369.695312 120.867188 367.753906 121.296875 C 366.101562 123.988281 364.527344 125.757812 363.027344 126.609375 C 362.621094 126.84375 362.09375 127.0625 361.441406 127.273438 C 359.882812 127.796875 358.105469 128.058594 356.105469 128.058594 C 354.109375 128.058594 352.5625 127.84375 351.464844 127.410156 C 350.371094 126.972656 349.820312 126.550781 349.820312 126.140625 C 349.820312 125.726562 349.996094 125.367188 350.339844 125.066406 C 350.6875 124.765625 351.15625 124.488281 351.753906 124.238281 C 352.351562 123.988281 353.050781 123.757812 353.859375 123.550781 C 354.664062 123.332031 355.53125 123.125 356.453125 122.925781 C 357.375 122.726562 358.328125 122.53125 359.308594 122.339844 C 360.308594 122.144531 361.296875 121.941406 362.277344 121.726562 L 365.160156 121.078125 C 365.371094 120.828125 366.101562 120.105469 367.351562 118.910156 C 368.601562 117.71875 369.332031 117.007812 369.542969 116.78125 C 367.890625 118.207031 365.863281 119.316406 363.460938 120.113281 C 361.84375 120.648438 360.308594 120.914062 358.847656 120.914062 C 357.386719 120.914062 356.183594 120.742188 355.242188 120.394531 C 354.300781 120.046875 353.828125 119.558594 353.828125 118.929688 C 353.828125 117.953125 354.769531 116.410156 356.65625 114.308594 C 357.597656 113.261719 358.066406 112.695312 358.066406 112.601562 C 357.992188 112.4375 358.027344 112.324219 358.183594 112.261719 C 358.742188 112.039062 359.394531 111.929688 360.144531 111.929688 C 360.894531 111.929688 361.269531 112.042969 361.269531 112.269531 C 361.269531 112.480469 360.539062 113.460938 359.078125 115.210938 C 357.617188 116.960938 356.886719 118.136719 356.886719 118.734375 C 356.886719 119.324219 357.125 119.695312 357.605469 119.847656 C 358.105469 120.003906 358.710938 120.078125 359.421875 120.078125 C 360.941406 120.078125 362.535156 119.707031 364.207031 118.964844 C 365.878906 118.21875 367.3125 117.191406 368.503906 115.886719 C 369.714844 114.578125 370.53125 113.667969 370.953125 113.15625 Z M 363.691406 123.226562 L 364.4375 122.089844 C 362.863281 122.449219 361.363281 122.769531 359.941406 123.054688 C 358.539062 123.339844 357.308594 123.625 356.25 123.90625 C 353.964844 124.519531 352.820312 125.207031 352.820312 125.960938 C 352.820312 126.4375 353.347656 126.808594 354.40625 127.070312 C 354.847656 127.171875 355.433594 127.222656 356.164062 127.222656 C 356.914062 127.222656 357.597656 127.148438 358.210938 127 C 358.847656 126.855469 359.414062 126.664062 359.914062 126.429688 C 360.414062 126.199219 360.855469 125.933594 361.238281 125.636719 C 361.644531 125.34375 362 125.046875 362.304688 124.75 C 362.613281 124.457031 362.871094 124.175781 363.085938 123.90625 C 363.316406 123.632812 363.515625 123.40625 363.691406 123.226562 Z M 387.589844 112.628906 C 385.667969 112.628906 384.707031 112.957031 384.707031 113.617188 C 384.707031 114.054688 385.054688 114.507812 385.746094 114.972656 C 386.4375 115.4375 387.023438 115.8125 387.503906 116.089844 C 389.367188 117.1875 390.300781 118.027344 390.300781 118.613281 C 390.300781 119.191406 389.703125 119.6875 388.511719 120.097656 C 387.320312 120.507812 385.601562 120.75 383.351562 120.828125 L 382.976562 120.828125 C 380.804688 120.828125 379.230469 120.433594 378.25 119.644531 C 378.210938 119.617188 378.191406 119.589844 378.191406 119.566406 L 378.191406 119.484375 C 378.191406 119.363281 378.316406 119.265625 378.566406 119.191406 C 378.816406 119.113281 379.085938 119.066406 379.375 119.046875 L 379.691406 119.046875 C 380.074219 119.046875 380.382812 119.09375 380.613281 119.183594 C 380.863281 119.277344 381.09375 119.378906 381.304688 119.492188 C 381.515625 119.597656 381.746094 119.699219 381.996094 119.789062 C 382.246094 119.878906 382.679688 119.925781 383.292969 119.925781 C 384.601562 119.925781 385.640625 119.808594 386.40625 119.566406 C 387.195312 119.324219 387.589844 119.054688 387.589844 118.757812 C 387.589844 118.460938 387.445312 118.1875 387.15625 117.929688 C 386.675781 117.492188 385.851562 116.949219 384.679688 116.292969 C 382.71875 115.21875 381.738281 114.386719 381.738281 113.789062 C 381.738281 113.191406 382.246094 112.703125 383.265625 112.320312 C 384.285156 111.941406 385.726562 111.75 387.589844 111.75 C 388.742188 111.75 389.734375 111.820312 390.558594 111.964844 C 392.117188 112.230469 392.894531 112.53125 392.894531 112.867188 C 392.894531 113.199219 392.425781 113.363281 391.480469 113.363281 C 391.136719 113.363281 390.847656 113.324219 390.617188 113.25 C 390.40625 113.171875 390.175781 113.085938 389.925781 112.996094 C 389.253906 112.75 388.472656 112.628906 387.589844 112.628906 Z M 402.523438 112.75 C 400.890625 112.75 399.476562 112.777344 398.285156 112.832031 C 397.5 112.8125 397.105469 112.710938 397.105469 112.535156 C 397.105469 112.433594 397.25 112.328125 397.535156 112.21875 C 397.824219 112.113281 398.210938 112.050781 398.691406 112.03125 L 402.957031 112.066406 C 403.035156 111.945312 403.109375 111.804688 403.1875 111.640625 C 403.285156 111.46875 403.4375 111.226562 403.648438 110.90625 C 403.878906 110.582031 404.1875 110.289062 404.570312 110.027344 C 404.976562 109.765625 405.492188 109.636719 406.128906 109.636719 C 406.761719 109.636719 407.078125 109.742188 407.078125 109.953125 L 407.078125 110.0625 C 406.523438 110.769531 406.050781 111.429688 405.667969 112.050781 L 409.90625 112.050781 C 411.402344 112.050781 412.316406 112.082031 412.644531 112.152344 C 412.988281 112.21875 413.164062 112.304688 413.164062 112.40625 C 413.164062 112.605469 412.75 112.738281 411.921875 112.800781 C 411.5 112.832031 410.644531 112.851562 409.355469 112.851562 C 408.089844 112.851562 406.703125 112.832031 405.207031 112.800781 C 404.839844 113.367188 404.023438 114.429688 402.753906 115.988281 C 401.503906 117.546875 400.882812 118.550781 400.882812 119.003906 C 400.882812 119.453125 401.054688 119.75 401.398438 119.890625 C 401.648438 119.984375 402.074219 120.027344 402.667969 120.027344 C 403.265625 120.027344 403.773438 119.976562 404.195312 119.875 C 404.621094 119.773438 405.003906 119.660156 405.347656 119.542969 C 405.695312 119.417969 406.03125 119.304688 406.359375 119.203125 C 406.703125 119.097656 407.078125 119.046875 407.484375 119.046875 C 408.269531 119.046875 408.664062 119.164062 408.664062 119.398438 C 408.664062 119.515625 408.261719 119.714844 407.453125 119.996094 C 406.667969 120.265625 405.9375 120.476562 405.261719 120.625 C 404.589844 120.773438 403.609375 120.847656 402.324219 120.847656 C 401.035156 120.847656 400.152344 120.78125 399.671875 120.652344 C 398.671875 120.390625 398.171875 119.972656 398.171875 119.398438 C 398.171875 119.101562 398.285156 118.753906 398.515625 118.347656 L 399.066406 117.359375 C 399.429688 116.871094 399.757812 116.445312 400.042969 116.082031 C 400.332031 115.710938 400.582031 115.386719 400.792969 115.109375 C 401.003906 114.832031 401.285156 114.46875 401.628906 114.027344 C 401.976562 113.578125 402.273438 113.152344 402.523438 112.75 Z M 428.269531 119.347656 C 428.941406 119.347656 429.277344 119.453125 429.277344 119.660156 C 429.277344 119.90625 428.269531 120.183594 426.25 120.488281 C 424.234375 120.796875 422.550781 120.949219 421.207031 120.949219 C 419.859375 120.949219 418.851562 120.882812 418.179688 120.753906 C 417.507812 120.621094 416.957031 120.441406 416.535156 120.207031 C 415.710938 119.753906 415.296875 119.203125 415.296875 118.5625 C 415.296875 117.425781 415.871094 116.355469 417.027344 115.347656 C 418.179688 114.34375 419.714844 113.511719 421.640625 112.851562 C 423.5625 112.1875 425.636719 111.851562 427.867188 111.851562 C 429.058594 111.851562 429.988281 112 430.664062 112.296875 C 431.355469 112.585938 431.699219 112.929688 431.699219 113.328125 C 431.699219 114.074219 431.039062 114.703125 429.710938 115.21875 C 428.402344 115.738281 426.789062 116.160156 424.867188 116.492188 C 422.945312 116.820312 420.734375 117.132812 418.238281 117.429688 L 418.121094 118.683594 C 418.121094 119.660156 419.121094 120.148438 421.121094 120.148438 C 422.195312 120.148438 423.320312 120.058594 424.492188 119.875 C 425.683594 119.6875 426.539062 119.554688 427.058594 119.472656 C 427.578125 119.390625 427.980469 119.347656 428.269531 119.347656 Z M 428.992188 113.363281 C 428.992188 112.90625 428.347656 112.679688 427.058594 112.679688 C 425.90625 112.679688 424.550781 112.988281 422.992188 113.601562 C 421.4375 114.214844 420.148438 115.023438 419.128906 116.03125 C 418.878906 116.273438 418.738281 116.460938 418.699219 116.585938 C 419.46875 116.460938 420.253906 116.339844 421.0625 116.226562 C 421.871094 116.113281 422.65625 115.992188 423.425781 115.867188 C 425.195312 115.578125 426.558594 115.242188 427.519531 114.855469 C 428.5 114.460938 428.992188 113.964844 428.992188 113.363281 Z M 434.84375 120.777344 C 435.152344 120.507812 435.417969 120.171875 435.648438 119.78125 C 435.898438 119.382812 436.21875 119.015625 436.601562 118.683594 C 438.234375 116.753906 439.582031 114.710938 440.636719 112.550781 C 440.695312 112.449219 440.734375 112.351562 440.753906 112.261719 C 440.792969 112.171875 441.078125 112.035156 441.617188 111.851562 C 442.023438 111.808594 442.320312 111.785156 442.511719 111.785156 C 443.050781 111.785156 443.40625 111.882812 443.578125 112.082031 L 443.578125 112.21875 C 443.5 113.050781 443.070312 113.953125 442.28125 114.929688 L 440.8125 116.761719 C 441.234375 116.503906 441.695312 116.199219 442.195312 115.859375 C 444.308594 114.417969 446.277344 113.394531 448.105469 112.800781 C 449.929688 112.195312 451.910156 111.894531 454.042969 111.894531 C 455.214844 111.894531 456.175781 112.039062 456.925781 112.320312 C 457.675781 112.601562 458.050781 112.925781 458.050781 113.300781 C 458.050781 113.359375 458.042969 113.410156 458.023438 113.457031 C 458.003906 113.496094 457.992188 113.539062 457.992188 113.582031 C 460.128906 112.816406 462.347656 112.292969 464.652344 112.015625 C 465.363281 111.925781 466.074219 111.878906 466.789062 111.878906 C 467.515625 111.878906 468.210938 111.980469 468.863281 112.1875 C 469.515625 112.382812 469.84375 112.65625 469.84375 112.996094 C 469.84375 113.335938 469.71875 113.703125 469.46875 114.09375 C 469.21875 114.488281 468.902344 114.882812 468.515625 115.28125 C 468.152344 115.679688 467.730469 116.082031 467.25 116.492188 C 466.789062 116.894531 466.183594 117.457031 465.433594 118.179688 C 464.683594 118.902344 464.242188 119.453125 464.105469 119.839844 C 463.972656 120.222656 463.855469 120.449219 463.761719 120.523438 C 463.683594 120.597656 463.511719 120.683594 463.242188 120.789062 C 462.992188 120.882812 462.636719 120.933594 462.175781 120.933594 C 461.269531 120.933594 460.820312 120.648438 460.820312 120.078125 C 460.820312 119.722656 461.039062 119.335938 461.480469 118.921875 C 461.925781 118.503906 462.28125 118.15625 462.550781 117.871094 C 462.835938 117.585938 463.222656 117.246094 463.703125 116.847656 C 464.183594 116.449219 464.777344 115.929688 465.488281 115.28125 C 466.199219 114.632812 466.671875 113.9375 466.902344 113.199219 C 466.902344 112.960938 466.796875 112.820312 466.585938 112.78125 C 466.394531 112.738281 466.039062 112.714844 465.519531 112.714844 C 465 112.714844 464.210938 112.8125 463.15625 113.011719 C 462.117188 113.210938 461.058594 113.492188 459.984375 113.855469 C 457.582031 114.691406 455.773438 115.71875 454.5625 116.933594 C 454.21875 117.296875 453.890625 117.609375 453.582031 117.871094 C 453.273438 118.132812 452.863281 118.492188 452.34375 118.945312 C 451.84375 119.402344 451.441406 119.800781 451.132812 120.148438 C 450.84375 120.488281 450.585938 120.703125 450.355469 120.796875 C 450.140625 120.886719 449.785156 120.933594 449.289062 120.933594 C 448.382812 120.933594 447.894531 120.789062 447.816406 120.496094 C 448.277344 119.542969 448.96875 118.699219 449.890625 117.964844 C 450.816406 117.234375 451.566406 116.648438 452.140625 116.21875 C 452.71875 115.785156 453.273438 115.300781 453.8125 114.761719 C 454.351562 114.214844 454.621094 113.746094 454.621094 113.355469 C 454.621094 112.960938 454.207031 112.765625 453.382812 112.765625 C 451.113281 112.765625 448.132812 113.867188 444.445312 116.074219 C 442.464844 117.25 441.261719 118.023438 440.839844 118.398438 C 440.417969 118.777344 440.089844 119.0625 439.859375 119.261719 C 438.589844 120.4375 437.390625 121.027344 436.253906 121.027344 C 435.871094 121.027344 435.535156 121.003906 435.246094 120.957031 C 434.976562 120.90625 434.84375 120.847656 434.84375 120.777344 Z M 434.84375 120.777344 "/>
</g>
</svg>
