<svg version="1.1" xmlns="http://www.w3.org/2000/svg" viewBox="0 0 250 250"><desc>Created with Snap</desc><defs></defs><g transform="matrix(0.0296,0,0,0.0296,70.6078,158.6194)"><g transform="matrix(41.2783,0,0,41.2783,-244.0633,-4943.8945)"><g><path d="M74.265,60.41c0.964,2.929,1.401,5.966,1.261,9.015c2.584-0.989,5.013-2.49,7.095-4.572c0.244-0.244,0.41-0.527,0.637-0.78   c0.018-0.341,0.105-0.659,0.105-1.004c0-2.924-0.646-5.691-1.764-8.203C79.522,57.139,77.045,59.022,74.265,60.41z" fill="#bb3344" style=""></path><path d="M54.863,81.605c2.509,1.112,5.276,1.759,8.2,1.759c0.349,0,0.664-0.085,1.004-0.103c0.253-0.227,0.541-0.393,0.781-0.637   c2.08-2.085,3.585-4.516,4.572-7.104c-3.049,0.14-6.086-0.292-9.01-1.257C59.022,77.049,57.137,79.528,54.863,81.605z" fill="#bb3344" style=""></path><path d="M40.588,74.265c-2.925,0.965-5.965,1.396-9.013,1.257c0.988,2.588,2.49,5.023,4.573,7.104   c0.242,0.244,0.528,0.41,0.779,0.637c0.339,0.018,0.661,0.103,1.003,0.103c2.926,0,5.691-0.646,8.202-1.759   C43.861,79.528,41.976,77.049,40.588,74.265z" fill="#bb3344" style=""></path><path d="M26.731,60.41c-2.781-1.388-5.26-3.271-7.337-5.545c-1.112,2.512-1.758,5.279-1.758,8.203c0,0.345,0.085,0.663,0.1,1.004   c0.229,0.253,0.395,0.536,0.639,0.78c2.082,2.082,4.515,3.583,7.098,4.572C25.333,66.376,25.767,63.339,26.731,60.41z" fill="#bb3344" style=""></path><path d="M26.731,40.592c-0.964-2.929-1.398-5.966-1.259-9.016c-2.583,0.989-5.014,2.491-7.098,4.572   c-0.244,0.245-0.41,0.528-0.639,0.781c-0.015,0.341-0.1,0.659-0.1,1.004c0,2.924,0.646,5.69,1.76,8.205   C21.471,43.863,23.95,41.979,26.731,40.592z" fill="#bb3344" style=""></path><path d="M46.132,19.397c-2.511-1.114-5.275-1.76-8.202-1.76c-0.342,0-0.664,0.084-1.003,0.102   c-0.251,0.228-0.537,0.393-0.779,0.638c-2.083,2.08-3.585,4.515-4.573,7.103c3.048-0.14,6.088,0.293,9.013,1.257   C41.976,23.952,43.861,21.475,46.132,19.397z" fill="#bb3344" style=""></path><path d="M60.41,26.736c2.924-0.964,5.961-1.396,9.01-1.257c-0.99-2.588-2.492-5.017-4.572-7.103   c-0.24-0.245-0.528-0.41-0.781-0.638c-0.34-0.018-0.659-0.102-1.004-0.102c-2.924,0-5.691,0.646-8.2,1.76   C57.137,21.475,59.022,23.952,60.41,26.736z" fill="#bb3344" style=""></path><path d="M82.621,36.148c-2.082-2.081-4.511-3.583-7.095-4.572c0.14,3.05-0.297,6.087-1.261,9.016   c2.78,1.388,5.257,3.271,7.334,5.547c1.117-2.515,1.764-5.281,1.764-8.205c0-0.345-0.088-0.663-0.105-1.004   C83.031,36.677,82.865,36.394,82.621,36.148z" fill="#bb3344" style=""></path><path d="M58.228,63.068c0-0.166-0.048-0.319-0.052-0.484c-1.061-0.21-2.09-0.498-3.099-0.834c-0.462,0.921-0.89,1.851-1.469,2.719   c0.113,0.122,0.19,0.267,0.309,0.384c1.143,1.14,2.404,2.069,3.718,2.881C57.993,66.228,58.228,64.683,58.228,63.068z" fill="#bb3344" style=""></path><path d="M43.362,67.733c1.313-0.812,2.574-1.741,3.715-2.881c0.12-0.117,0.199-0.262,0.312-0.384   c-0.581-0.868-1.008-1.798-1.471-2.719c-1.008,0.336-2.038,0.624-3.1,0.834c-0.002,0.165-0.048,0.318-0.048,0.484   C42.771,64.683,43.006,66.228,43.362,67.733z" fill="#bb3344" style=""></path><path d="M36.148,53.922c-1.139,1.14-2.068,2.4-2.88,3.717c1.503,0.355,3.051,0.59,4.663,0.59c0.166,0,0.318-0.044,0.484-0.048   c0.209-1.06,0.495-2.094,0.833-3.102c-0.918-0.463-1.848-0.886-2.716-1.471C36.411,53.726,36.269,53.805,36.148,53.922z" fill="#bb3344" style=""></path><path d="M38.415,42.821c-0.166-0.006-0.319-0.05-0.484-0.05c-1.612,0-3.159,0.236-4.663,0.591c0.812,1.318,1.739,2.578,2.88,3.717   c0.12,0.118,0.262,0.196,0.384,0.314c0.868-0.583,1.797-1.008,2.716-1.471C38.91,44.916,38.625,43.881,38.415,42.821z" fill="#bb3344" style=""></path><path d="M42.771,37.934c0,0.166,0.046,0.318,0.048,0.484c1.062,0.21,2.092,0.498,3.1,0.834c0.462-0.921,0.89-1.851,1.471-2.719   c-0.113-0.123-0.192-0.267-0.312-0.385c-1.141-1.139-2.402-2.066-3.715-2.879C43.006,34.774,42.771,36.319,42.771,37.934z" fill="#bb3344" style=""></path><path d="M57.635,33.27c-1.314,0.812-2.575,1.74-3.718,2.879c-0.118,0.118-0.195,0.262-0.309,0.385   c0.579,0.868,1.007,1.798,1.469,2.719c1.008-0.336,2.038-0.624,3.099-0.834c0.004-0.166,0.052-0.318,0.052-0.484   C58.228,36.319,57.993,34.774,57.635,33.27z" fill="#bb3344" style=""></path><path d="M63.063,42.771c-0.166,0-0.314,0.044-0.48,0.05c-0.209,1.06-0.498,2.095-0.838,3.102c0.921,0.463,1.851,0.888,2.719,1.471   c0.122-0.118,0.266-0.196,0.384-0.314c1.139-1.139,2.067-2.398,2.883-3.717C66.226,43.008,64.678,42.771,63.063,42.771z" fill="#bb3344" style=""></path><path d="M48.074,49.493c-0.035,0.676-0.035,1.339,0,2.012c0.452,0.502,0.921,0.969,1.42,1.423c0.671,0.034,1.335,0.034,2.007,0   c0.5-0.454,0.972-0.926,1.423-1.423c0.035-0.673,0.033-1.336,0-2.008c-0.451-0.502-0.921-0.969-1.42-1.423   c-0.673-0.035-1.34-0.035-2.012,0C48.995,48.528,48.524,48.995,48.074,49.493z" fill="#bb3344" style=""></path><path d="M64.464,53.608c-0.868,0.585-1.798,1.008-2.719,1.471c0.34,1.008,0.628,2.042,0.838,3.102   c0.166,0.004,0.314,0.048,0.48,0.048c1.615,0,3.163-0.234,4.668-0.59c-0.816-1.316-1.745-2.577-2.883-3.717   C64.73,53.805,64.586,53.726,64.464,53.608z" fill="#bb3344" style=""></path><path d="M72.271,55.926c2.583-1.327,4.827-3.173,6.615-5.425c-1.788-2.252-4.031-4.098-6.615-5.425   c-1.091,1.929-2.357,3.784-3.998,5.425C69.914,52.142,71.179,53.996,72.271,55.926z" fill="#bb3344" style=""></path><path d="M62.138,31.245c0.585,2.133,0.925,4.367,0.925,6.688c2.322,0,4.555,0.341,6.689,0.93c0.868-2.745,1.143-5.603,0.82-8.436   C67.74,30.104,64.879,30.375,62.138,31.245z" fill="#bb3344" style=""></path><path d="M50.498,22.11c-2.253,1.794-4.099,4.033-5.424,6.616c1.927,1.096,3.782,2.361,5.424,4.002   c1.644-1.641,3.498-2.906,5.426-4.002C54.597,26.144,52.752,23.904,50.498,22.11z" fill="#bb3344" style=""></path><path d="M37.931,37.934c0-2.321,0.34-4.556,0.927-6.688c-2.74-0.87-5.601-1.141-8.432-0.817c-0.323,2.833-0.05,5.69,0.817,8.436   C33.377,38.274,35.612,37.934,37.931,37.934z" fill="#bb3344" style=""></path><path d="M22.108,50.501c1.794,2.252,4.034,4.098,6.618,5.425c1.091-1.93,2.356-3.784,3.999-5.425   c-1.643-1.641-2.908-3.496-4.001-5.425C26.143,46.403,23.902,48.249,22.108,50.501z" fill="#bb3344" style=""></path><path d="M38.858,69.757c-0.587-2.133-0.927-4.367-0.927-6.688c-2.319,0-4.553-0.341-6.688-0.93   c-0.868,2.745-1.14,5.604-0.817,8.436C33.257,70.896,36.118,70.627,38.858,69.757z" fill="#bb3344" style=""></path><path d="M50.498,78.891c2.255-1.793,4.1-4.032,5.426-6.616c-1.929-1.095-3.782-2.36-5.426-4c-1.642,1.64-3.497,2.905-5.424,4   C46.401,74.858,48.245,77.098,50.498,78.891z" fill="#bb3344" style=""></path><path d="M63.063,63.068c0,2.321-0.34,4.556-0.925,6.688c2.741,0.87,5.602,1.139,8.435,0.817c0.323-2.832,0.048-5.695-0.82-8.436   C67.618,62.728,65.385,63.068,63.063,63.068z" fill="#bb3344" style=""></path><path d="M87.425,44.026c-0.571,2.304-1.457,4.476-2.614,6.475c1.157,1.999,2.043,4.177,2.614,6.475   C88.844,52.771,88.844,48.231,87.425,44.026z" fill="#bb3344" style=""></path><path d="M81.233,29.05c-1.981-4.041-5.244-7.301-9.286-9.282c1.249,2.063,2.147,4.268,2.745,6.541   C76.966,26.907,79.165,27.802,81.233,29.05z" fill="#bb3344" style=""></path><path d="M56.971,13.576c-4.204-1.418-8.742-1.418-12.947,0c2.3,0.571,4.473,1.453,6.473,2.614   C52.5,15.029,54.671,14.147,56.971,13.576z" fill="#bb3344" style=""></path><path d="M29.047,19.768c-4.042,1.981-7.301,5.241-9.284,9.282c2.066-1.248,4.268-2.143,6.541-2.741   C26.904,24.035,27.798,21.831,29.047,19.768z" fill="#bb3344" style=""></path><path d="M13.571,56.973c0.574-2.3,1.458-4.473,2.616-6.472c-1.159-1.999-2.04-4.171-2.616-6.472   C12.158,48.231,12.158,52.771,13.571,56.973z" fill="#bb3344" style=""></path><path d="M19.765,71.952c1.981,4.041,5.24,7.297,9.279,9.282c-1.248-2.068-2.141-4.269-2.741-6.542   C24.031,74.095,21.829,73.2,19.765,71.952z" fill="#bb3344" style=""></path><path d="M44.024,87.426c4.205,1.418,8.746,1.418,12.947,0c-2.3-0.572-4.472-1.453-6.474-2.614   C48.498,85.973,46.324,86.854,44.024,87.426z" fill="#bb3344" style=""></path><path d="M71.952,81.234c4.037-1.985,7.3-5.241,9.281-9.282c-2.068,1.248-4.267,2.143-6.541,2.74   C74.095,76.966,73.2,79.166,71.952,81.234z" fill="#bb3344" style=""></path></g><desc>Created with Snap</desc><defs></defs></g><g><g transform="matrix(0.5,0,0,-0.5,0,0)"><path d="M1346 1968Q1382 1968 1382 1933Q1382 1912 1360 1859Q1338 1807 1323 1753Q1308 1699 1283 1594Q1259 1489 1232 1368Q1206 1248 1178 1120Q1077 646 1023 484Q969 322 926 241Q788 -20 476 -20Q308 -20 204 96Q100 212 100 373Q100 443 117 492Q152 690 182 869Q213 1049 264 1330Q316 1612 406 1937Q427 1968 450 1968Q494 1968 494 1933Q492 1921 487 1908Q483 1896 479 1884L440 1759Q396 1546 328 1171Q261 797 223 613Q186 430 186 352Q186 234 262 154Q338 74 477 74Q695 74 802 206Q861 278 888 358L932 487Q1000 694 1105 1186Q1211 1679 1274 1888Q1285 1925 1306 1946Q1327 1968 1346 1968ZM2007 810Q2007 909 1953 909Q1881 909 1678 496Q1586 309 1549 213Q1513 118 1495 79Q1477 40 1459 20Q1442 0 1420 0Q1399 0 1395 10Q1391 21 1391 48Q1391 76 1471 520Q1552 965 1564 988Q1577 1011 1587 1017Q1597 1024 1623 1024Q1649 1024 1663 1004Q1678 984 1678 968Q1678 953 1674 938Q1667 911 1653 871Q1605 734 1561 483L1540 362Q1563 410 1592 477Q1621 545 1678 671Q1735 797 1805 896Q1895 1026 1973 1026Q2110 1026 2110 805Q2110 722 2086 598Q2063 474 2034 327Q2006 180 2003 84L1991 29Q1991 7 1984 -3Q1978 -12 1945 -12Q1913 -12 1898 0Q1884 12 1889 43L1989 641Q2007 752 2007 810ZM2605 1376Q2664 1376 2664 1317Q2664 1231 2604 1220Q2587 1217 2567 1217Q2547 1217 2527 1237Q2507 1257 2507 1288Q2507 1320 2538 1348Q2569 1376 2605 1376ZM2464 909L2464 929Q2464 943 2449 997Q2449 1022 2466 1042Q2483 1063 2507 1063Q2532 1063 2548 1032Q2564 1001 2564 964Q2564 927 2470 522Q2376 117 2376 95Q2376 74 2396 74Q2409 74 2433 99Q2457 125 2474 125Q2507 125 2507 83Q2507 42 2445 11Q2383 -20 2355 -20Q2285 -20 2285 92Q2285 115 2294 143Q2304 172 2314 222Q2325 273 2344 360Q2364 447 2384 540Q2405 633 2434 765Q2464 898 2464 909ZM3086 1378Q3371 1356 3371 1028Q3371 701 3146 293Q3072 160 2977 35Q2946 -6 2922 -6Q2871 -6 2865 37Q2829 291 2807 500Q2785 710 2744 1012Q2750 1032 2767 1046Q2785 1061 2800 1061Q2829 1061 2838 1026Q2860 825 2888 607Q2916 389 2945 143Q3094 378 3153 513Q3274 794 3274 1010Q3274 1227 3148 1275Q3112 1289 3082 1293Q3052 1297 3040 1303Q3029 1309 3029 1327Q3029 1371 3086 1378ZM3878 168Q3913 168 3913 131Q3913 88 3808 34Q3703 -20 3633 -20Q3563 -20 3528 3Q3493 26 3471 67Q3428 147 3428 260Q3428 460 3488 637Q3548 814 3648 930Q3748 1047 3864 1047Q3926 1047 3961 995Q3997 944 3997 874Q3997 743 3928 652Q3860 561 3760 503Q3660 445 3530 393L3526 246Q3526 74 3630 74Q3686 74 3747 106Q3809 139 3836 153Q3863 168 3878 168ZM3903 870Q3903 950 3836 950Q3776 950 3695 842Q3614 734 3561 557Q3548 514 3546 492Q3586 514 3628 534Q3670 554 3710 576Q3802 627 3852 695Q3903 764 3903 870ZM4106 4L4152 248Q4188 435 4201 513Q4214 592 4230 686Q4247 781 4298 958Q4296 963 4296 967L4296 977Q4296 1025 4333 1046Q4344 1053 4356 1053Q4399 1053 4399 991Q4399 955 4370 861Q4341 768 4325 688Q4339 711 4359 746Q4380 781 4424 848Q4469 915 4536 975Q4604 1036 4674 1036Q4745 1036 4782 998Q4796 985 4796 965Q4796 945 4778 929Q4760 913 4741 913Q4722 913 4704 923Q4686 934 4664 934Q4642 934 4594 898Q4403 759 4279 347Q4246 237 4239 195Q4232 154 4227 128Q4197 -33 4135 -33Q4106 -33 4106 4ZM5138 956Q5038 956 5038 840Q5038 763 5074 681Q5110 599 5135 550Q5232 357 5232 254Q5232 152 5170 80Q5108 8 4991 -6L4978 -6Q4865 -6 4814 133Q4812 138 4812 142L4812 152Q4812 173 4825 186Q4838 200 4853 203L4864 203Q4884 203 4896 187Q4909 171 4920 151Q4931 132 4944 116Q4957 100 4989 100Q5057 100 5097 142Q5138 185 5138 237Q5138 289 5123 334Q5098 411 5037 526Q4935 715 4935 820Q4935 925 4988 992Q5041 1059 5138 1059Q5198 1059 5241 1034Q5322 987 5322 928Q5322 870 5273 870Q5255 870 5243 883Q5232 897 5219 913Q5184 956 5138 956ZM5767 1376Q5826 1376 5826 1317Q5826 1231 5766 1220Q5749 1217 5729 1217Q5709 1217 5689 1237Q5669 1257 5669 1288Q5669 1320 5700 1348Q5731 1376 5767 1376ZM5626 909L5626 929Q5626 943 5611 997Q5611 1022 5628 1042Q5645 1063 5669 1063Q5694 1063 5710 1032Q5726 1001 5726 964Q5726 927 5632 522Q5538 117 5538 95Q5538 74 5558 74Q5571 74 5595 99Q5619 125 5636 125Q5669 125 5669 83Q5669 42 5607 11Q5545 -20 5517 -20Q5447 -20 5447 92Q5447 115 5456 143Q5466 172 5476 222Q5487 273 5506 360Q5526 447 5546 540Q5567 633 5596 765Q5626 898 5626 909ZM6094 942Q6009 942 5947 932Q5906 936 5906 967Q5906 985 5921 1004Q5936 1023 5961 1026L6109 1022Q6113 1043 6117 1072Q6122 1102 6133 1158Q6145 1215 6165 1261Q6186 1307 6219 1307Q6252 1307 6252 1270L6252 1257Q6223 1133 6203 1024L6350 1024Q6428 1024 6445 1012Q6463 1000 6463 982Q6463 947 6420 936Q6398 930 6331 930Q6265 930 6187 936Q6168 836 6102 562Q6037 288 6037 208Q6037 129 6055 104Q6068 88 6099 88Q6130 88 6152 106Q6174 124 6192 145Q6210 167 6227 185Q6245 203 6266 203Q6307 203 6307 162Q6307 141 6265 92Q6224 44 6189 18Q6154 -8 6087 -8Q6020 -8 5995 15Q5943 61 5943 162Q5943 214 5955 285L5974 401Q5993 487 6008 551Q6023 616 6034 665Q6045 714 6063 792Q6081 871 6094 942ZM7139 894Q7162 985 7179 1009Q7196 1034 7229 1034Q7262 1034 7262 1010Q7262 986 7172 591Q7083 197 7051 51Q7091 86 7122 117Q7153 148 7177 169Q7201 190 7219 190Q7257 190 7257 156Q7257 135 7241 115Q7129 15 7028 -61Q6942 -534 6864 -684Q6843 -725 6809 -762Q6728 -854 6624 -854Q6520 -854 6463 -778Q6406 -701 6406 -629Q6406 -556 6424 -503Q6442 -450 6473 -406Q6504 -362 6546 -325Q6588 -287 6636 -252Q6684 -217 6735 -183Q6787 -149 6838 -111L6938 -35Q6949 9 7014 219Q7079 429 7090 469Q7004 218 6879 78Q6795 -16 6719 -16Q6643 -16 6594 45Q6545 106 6545 217Q6545 389 6643 759Q6692 943 6692 959Q6688 988 6696 999Q6725 1038 6764 1038Q6803 1038 6803 998Q6803 961 6727 653Q6651 345 6651 240Q6651 136 6676 109Q6702 82 6739 82Q6818 82 6905 213Q6992 344 7054 574Q7117 804 7139 894ZM6887 -287L6913 -154Q6831 -217 6757 -267Q6684 -317 6629 -367Q6510 -475 6510 -608Q6510 -692 6565 -738Q6588 -756 6626 -756Q6665 -756 6697 -730Q6730 -704 6756 -663Q6782 -622 6802 -570Q6823 -518 6839 -466Q6855 -414 6866 -367Q6878 -319 6887 -287Z" fill="#8a0059" style=""></path></g></g><g transform="matrix(1,0,0,1,-2076,1725.2)"><g transform="matrix(0.5,0,0,-0.5,0,0)"><path d="M1567 1933Q1594 1982 1626 1982Q1659 1982 1659 1952Q1659 1949 1659 1946Q1598 929 1591 76Q1604 50 1590 24Q1566 -25 1534 -25Q1495 -25 1492 44Q1491 64 1491 171Q1491 278 1496 475Q1502 672 1509 870Q1517 1069 1525 1266Q1533 1464 1538 1657Q1439 1436 1194 970Q950 505 866 336Q843 293 814 293Q785 293 774 322Q722 562 616 1037Q510 1512 471 1706Q404 1366 259 768Q114 170 80 18Q60 -23 23 -23Q-8 -23 -12 18Q53 375 209 1022Q365 1670 424 1931Q430 1951 447 1965Q465 1980 480 1980Q509 1980 518 1946Q603 1578 689 1161Q776 744 831 510Q968 746 1085 979Q1202 1212 1315 1439Q1429 1666 1567 1933ZM1903 0Q1786 0 1786 147Q1786 294 1895 507Q2005 721 2153 876Q2301 1032 2394 1032Q2488 1032 2501 950Q2505 925 2507 897Q2516 903 2529 903Q2576 903 2576 858L2576 850Q2576 847 2551 760Q2526 673 2494 470Q2462 267 2462 123Q2471 117 2483 109Q2495 102 2513 86Q2531 71 2531 50Q2531 29 2518 12Q2505 -4 2481 -4Q2432 -4 2392 46Q2353 96 2353 154Q2353 279 2421 584Q2336 406 2201 241Q2066 76 2014 38Q1963 0 1903 0ZM1888 143Q1888 106 1919 106Q1941 106 1956 121Q2163 299 2327 614Q2420 794 2425 821Q2431 848 2431 867Q2431 886 2421 903Q2411 920 2393 920Q2375 920 2340 901Q2263 859 2150 722Q2038 585 1963 424Q1888 263 1888 143ZM3371 810Q3371 909 3317 909Q3245 909 3042 496Q2950 309 2913 213Q2877 118 2859 79Q2841 40 2823 20Q2806 0 2784 0Q2763 0 2759 10Q2755 21 2755 48Q2755 76 2835 520Q2916 965 2928 988Q2941 1011 2951 1017Q2961 1024 2987 1024Q3013 1024 3027 1004Q3042 984 3042 968Q3042 953 3038 938Q3031 911 3017 871Q2969 734 2925 483L2904 362Q2927 410 2956 477Q2985 545 3042 671Q3099 797 3169 896Q3259 1026 3337 1026Q3474 1026 3474 805Q3474 722 3450 598Q3427 474 3398 327Q3370 180 3367 84L3355 29Q3355 7 3348 -3Q3342 -12 3309 -12Q3277 -12 3262 0Q3248 12 3253 43L3353 641Q3371 752 3371 810ZM3736 0Q3619 0 3619 147Q3619 294 3728 507Q3838 721 3986 876Q4134 1032 4227 1032Q4321 1032 4334 950Q4338 925 4340 897Q4349 903 4362 903Q4409 903 4409 858L4409 850Q4409 847 4384 760Q4359 673 4327 470Q4295 267 4295 123Q4304 117 4316 109Q4328 102 4346 86Q4364 71 4364 50Q4364 29 4351 12Q4338 -4 4314 -4Q4265 -4 4225 46Q4186 96 4186 154Q4186 279 4254 584Q4169 406 4034 241Q3899 76 3847 38Q3796 0 3736 0ZM3721 143Q3721 106 3752 106Q3774 106 3789 121Q3996 299 4160 614Q4253 794 4258 821Q4264 848 4264 867Q4264 886 4254 903Q4244 920 4226 920Q4208 920 4173 901Q4096 859 3983 722Q3871 585 3796 424Q3721 263 3721 143ZM5221 1016Q5254 1016 5254 982Q5254 949 5242 917Q5230 885 5216 834Q5203 784 5178 680Q5153 576 5129 469Q5105 363 5082 257Q5060 151 5038 53Q5076 79 5113 113Q5151 147 5176 167Q5202 188 5220 188Q5258 188 5258 154Q5258 127 5241 113Q5114 16 5026 -47L4967 -348Q4907 -653 4814 -758Q4740 -840 4642 -840Q4545 -840 4478 -774Q4412 -707 4412 -596Q4412 -436 4577 -292Q4644 -234 4757 -151Q4871 -68 4936 -14Q4945 31 4957 84Q4970 138 4980 182Q4990 226 5000 269Q5010 312 5018 351Q5027 390 5034 418Q4979 241 4920 150Q4811 -16 4735 -16Q4660 -16 4613 41Q4567 98 4567 193Q4567 368 4633 563Q4699 759 4815 900Q4931 1042 5069 1042Q5139 1042 5194 1010Q5206 1016 5221 1016ZM4723 548Q4660 373 4660 227Q4660 82 4736 82Q4803 82 4890 211Q4978 340 5030 519Q5083 699 5110 798Q5137 898 5147 934Q5115 961 5068 961Q4977 961 4882 842Q4787 723 4723 548ZM4889 -287L4920 -125Q4845 -187 4771 -243Q4698 -298 4640 -353Q4512 -476 4512 -586Q4512 -695 4560 -724Q4581 -737 4624 -737Q4712 -737 4772 -642Q4833 -546 4889 -287ZM5802 168Q5837 168 5837 131Q5837 88 5732 34Q5627 -20 5557 -20Q5487 -20 5452 3Q5417 26 5395 67Q5352 147 5352 260Q5352 460 5412 637Q5472 814 5572 930Q5672 1047 5788 1047Q5850 1047 5885 995Q5921 944 5921 874Q5921 743 5852 652Q5784 561 5684 503Q5584 445 5454 393L5450 246Q5450 74 5554 74Q5610 74 5671 106Q5733 139 5760 153Q5787 168 5802 168ZM5827 870Q5827 950 5760 950Q5700 950 5619 842Q5538 734 5485 557Q5472 514 5470 492Q5510 514 5552 534Q5594 554 5634 576Q5726 627 5776 695Q5827 764 5827 870ZM6030 0Q6046 48 6058 117Q6071 187 6091 246Q6176 585 6231 965Q6234 983 6235 999Q6237 1015 6265 1047Q6286 1055 6296 1055Q6324 1055 6333 1020L6333 1004Q6329 858 6288 686L6237 471Q6259 517 6285 577Q6395 831 6490 936Q6585 1042 6696 1042Q6757 1042 6796 992Q6835 943 6835 877Q6835 867 6834 859Q6833 852 6833 844Q6944 979 7064 1028Q7101 1044 7138 1044Q7176 1044 7210 1008Q7244 973 7244 913Q7244 853 7231 784Q7218 715 7198 645Q7179 575 7154 503Q7130 432 7091 305Q7052 178 7045 110Q7038 43 7033 30Q7029 17 7015 -1Q7002 -18 6978 -18Q6931 -18 6931 82Q6931 145 6954 218Q6977 291 6991 341Q7006 391 7031 461Q7056 531 7093 645Q7130 759 7142 889Q7142 931 7131 938Q7121 946 7094 946Q7067 946 7012 911Q6958 876 6902 812Q6777 665 6714 451Q6696 387 6680 341Q6664 295 6637 215Q6611 135 6595 74Q6580 14 6568 -2Q6557 -18 6531 -18Q6484 -18 6480 33Q6504 201 6552 330Q6600 459 6630 535Q6660 611 6688 706Q6716 802 6716 871Q6716 940 6673 940Q6555 940 6363 552Q6260 345 6238 279Q6216 213 6204 178Q6138 -29 6079 -29Q6059 -29 6044 -21Q6030 -12 6030 0ZM7875 168Q7910 168 7910 131Q7910 88 7805 34Q7700 -20 7630 -20Q7560 -20 7525 3Q7490 26 7468 67Q7425 147 7425 260Q7425 460 7485 637Q7545 814 7645 930Q7745 1047 7861 1047Q7923 1047 7958 995Q7994 944 7994 874Q7994 743 7925 652Q7857 561 7757 503Q7657 445 7527 393L7523 246Q7523 74 7627 74Q7683 74 7744 106Q7806 139 7833 153Q7860 168 7875 168ZM7900 870Q7900 950 7833 950Q7773 950 7692 842Q7611 734 7558 557Q7545 514 7543 492Q7583 514 7625 534Q7667 554 7707 576Q7799 627 7849 695Q7900 764 7900 870ZM8719 810Q8719 909 8665 909Q8593 909 8390 496Q8298 309 8261 213Q8225 118 8207 79Q8189 40 8171 20Q8154 0 8132 0Q8111 0 8107 10Q8103 21 8103 48Q8103 76 8183 520Q8264 965 8276 988Q8289 1011 8299 1017Q8309 1024 8335 1024Q8361 1024 8375 1004Q8390 984 8390 968Q8390 953 8386 938Q8379 911 8365 871Q8317 734 8273 483L8252 362Q8275 410 8304 477Q8333 545 8390 671Q8447 797 8517 896Q8607 1026 8685 1026Q8822 1026 8822 805Q8822 722 8798 598Q8775 474 8746 327Q8718 180 8715 84L8703 29Q8703 7 8696 -3Q8690 -12 8657 -12Q8625 -12 8610 0Q8596 12 8601 43L8701 641Q8719 752 8719 810ZM9206 942Q9121 942 9059 932Q9018 936 9018 967Q9018 985 9033 1004Q9048 1023 9073 1026L9221 1022Q9225 1043 9229 1072Q9234 1102 9245 1158Q9257 1215 9277 1261Q9298 1307 9331 1307Q9364 1307 9364 1270L9364 1257Q9335 1133 9315 1024L9462 1024Q9540 1024 9557 1012Q9575 1000 9575 982Q9575 947 9532 936Q9510 930 9443 930Q9377 930 9299 936Q9280 836 9214 562Q9149 288 9149 208Q9149 129 9167 104Q9180 88 9211 88Q9242 88 9264 106Q9286 124 9304 145Q9322 167 9339 185Q9357 203 9378 203Q9419 203 9419 162Q9419 141 9377 92Q9336 44 9301 18Q9266 -8 9199 -8Q9132 -8 9107 15Q9055 61 9055 162Q9055 214 9067 285L9086 401Q9105 487 9120 551Q9135 616 9146 665Q9157 714 9175 792Q9193 871 9206 942ZM11293 1980Q11532 1980 11609 1722Q11617 1709 11617 1690Q11617 1672 11599 1656Q11582 1640 11564 1640Q11533 1640 11527 1678Q11513 1768 11451 1831Q11389 1894 11293 1894Q11197 1894 11148 1827Q11099 1760 11099 1669Q11099 1578 11123 1482Q11148 1386 11185 1290Q11222 1194 11264 1098Q11307 1002 11344 905Q11430 680 11430 500Q11430 321 11331 172Q11204 -23 10931 -23Q10722 -23 10569 81Q10417 185 10417 379Q10417 573 10533 714Q10575 765 10636 819Q10656 836 10674 836Q10714 836 10714 803Q10714 786 10705 772Q10603 678 10570 616Q10515 508 10515 408Q10515 308 10550 248Q10585 188 10643 148Q10757 68 10939 68Q11122 68 11235 212Q11332 335 11332 512Q11332 690 11166 1076Q11000 1462 11000 1612Q11000 1763 11072 1871Q11144 1980 11293 1980ZM12248 894Q12271 985 12288 1009Q12305 1034 12338 1034Q12371 1034 12371 1010Q12371 986 12281 591Q12192 197 12160 51Q12200 86 12231 117Q12262 148 12286 169Q12310 190 12328 190Q12366 190 12366 156Q12366 135 12350 115Q12238 15 12137 -61Q12051 -534 11973 -684Q11952 -725 11918 -762Q11837 -854 11733 -854Q11629 -854 11572 -778Q11515 -701 11515 -629Q11515 -556 11533 -503Q11551 -450 11582 -406Q11613 -362 11655 -325Q11697 -287 11745 -252Q11793 -217 11844 -183Q11896 -149 11947 -111L12047 -35Q12058 9 12123 219Q12188 429 12199 469Q12113 218 11988 78Q11904 -16 11828 -16Q11752 -16 11703 45Q11654 106 11654 217Q11654 389 11752 759Q11801 943 11801 959Q11797 988 11805 999Q11834 1038 11873 1038Q11912 1038 11912 998Q11912 961 11836 653Q11760 345 11760 240Q11760 136 11785 109Q11811 82 11848 82Q11927 82 12014 213Q12101 344 12163 574Q12226 804 12248 894ZM11996 -287L12022 -154Q11940 -217 11866 -267Q11793 -317 11738 -367Q11619 -475 11619 -608Q11619 -692 11674 -738Q11697 -756 11735 -756Q11774 -756 11806 -730Q11839 -704 11865 -663Q11891 -622 11911 -570Q11932 -518 11948 -466Q11964 -414 11975 -367Q11987 -319 11996 -287ZM12825 956Q12725 956 12725 840Q12725 763 12761 681Q12797 599 12822 550Q12919 357 12919 254Q12919 152 12857 80Q12795 8 12678 -6L12665 -6Q12552 -6 12501 133Q12499 138 12499 142L12499 152Q12499 173 12512 186Q12525 200 12540 203L12551 203Q12571 203 12583 187Q12596 171 12607 151Q12618 132 12631 116Q12644 100 12676 100Q12744 100 12784 142Q12825 185 12825 237Q12825 289 12810 334Q12785 411 12724 526Q12622 715 12622 820Q12622 925 12675 992Q12728 1059 12825 1059Q12885 1059 12928 1034Q13009 987 13009 928Q13009 870 12960 870Q12942 870 12930 883Q12919 897 12906 913Q12871 956 12825 956ZM13343 942Q13258 942 13196 932Q13155 936 13155 967Q13155 985 13170 1004Q13185 1023 13210 1026L13358 1022Q13362 1043 13366 1072Q13371 1102 13382 1158Q13394 1215 13414 1261Q13435 1307 13468 1307Q13501 1307 13501 1270L13501 1257Q13472 1133 13452 1024L13599 1024Q13677 1024 13694 1012Q13712 1000 13712 982Q13712 947 13669 936Q13647 930 13580 930Q13514 930 13436 936Q13417 836 13351 562Q13286 288 13286 208Q13286 129 13304 104Q13317 88 13348 88Q13379 88 13401 106Q13423 124 13441 145Q13459 167 13476 185Q13494 203 13515 203Q13556 203 13556 162Q13556 141 13514 92Q13473 44 13438 18Q13403 -8 13336 -8Q13269 -8 13244 15Q13192 61 13192 162Q13192 214 13204 285L13223 401Q13242 487 13257 551Q13272 616 13283 665Q13294 714 13312 792Q13330 871 13343 942ZM14236 168Q14271 168 14271 131Q14271 88 14166 34Q14061 -20 13991 -20Q13921 -20 13886 3Q13851 26 13829 67Q13786 147 13786 260Q13786 460 13846 637Q13906 814 14006 930Q14106 1047 14222 1047Q14284 1047 14319 995Q14355 944 14355 874Q14355 743 14286 652Q14218 561 14118 503Q14018 445 13888 393L13884 246Q13884 74 13988 74Q14044 74 14105 106Q14167 139 14194 153Q14221 168 14236 168ZM14261 870Q14261 950 14194 950Q14134 950 14053 842Q13972 734 13919 557Q13906 514 13904 492Q13944 514 13986 534Q14028 554 14068 576Q14160 627 14210 695Q14261 764 14261 870ZM14464 0Q14480 48 14492 117Q14505 187 14525 246Q14610 585 14665 965Q14668 983 14669 999Q14671 1015 14699 1047Q14720 1055 14730 1055Q14758 1055 14767 1020L14767 1004Q14763 858 14722 686L14671 471Q14693 517 14719 577Q14829 831 14924 936Q15019 1042 15130 1042Q15191 1042 15230 992Q15269 943 15269 877Q15269 867 15268 859Q15267 852 15267 844Q15378 979 15498 1028Q15535 1044 15572 1044Q15610 1044 15644 1008Q15678 973 15678 913Q15678 853 15665 784Q15652 715 15632 645Q15613 575 15588 503Q15564 432 15525 305Q15486 178 15479 110Q15472 43 15467 30Q15463 17 15449 -1Q15436 -18 15412 -18Q15365 -18 15365 82Q15365 145 15388 218Q15411 291 15425 341Q15440 391 15465 461Q15490 531 15527 645Q15564 759 15576 889Q15576 931 15565 938Q15555 946 15528 946Q15501 946 15446 911Q15392 876 15336 812Q15211 665 15148 451Q15130 387 15114 341Q15098 295 15071 215Q15045 135 15029 74Q15014 14 15002 -2Q14991 -18 14965 -18Q14918 -18 14914 33Q14938 201 14986 330Q15034 459 15064 535Q15094 611 15122 706Q15150 802 15150 871Q15150 940 15107 940Q14989 940 14797 552Q14694 345 14672 279Q14650 213 14638 178Q14572 -29 14513 -29Q14493 -29 14478 -21Q14464 -12 14464 0Z" fill="#8a0059" style=""></path></g></g></g></svg>